<svg xmlns="http://www.w3.org/2000/svg" width="32" height="32" viewBox="0 0 32 32">
  <g fill="none">
    <circle cx="16" cy="16" r="16" fill="#001D3C"/>
    <g fill="#FFF" transform="translate(5.76 4.48)">
      <polygon points="3.17 4.875 4.875 3.896 5.105 4.291 11.391 .666 10.931 .401 10.469 .132 10.24 0 0 5.916 0 6.18 2.94 4.479"/>
      <polygon points="3.17 8.6 8.097 5.753 8.327 6.153 14.612 2.526 14.153 2.258 13.692 1.994 13.462 1.864 0 9.636 0 9.9 2.94 8.199"/>
      <polygon points="3.17 10.461 9.708 6.687 9.939 7.083 16.222 3.452 15.763 3.192 15.304 2.922 15.072 2.79 0 11.492 0 11.761 2.94 10.063"/>
      <polygon points="3.17 12.32 11.364 7.59 11.597 7.986 17.834 4.386 17.375 4.116 16.913 3.852 16.684 3.72 0 13.356 0 13.62 2.94 11.919"/>
      <polygon points="3.17 14.177 12.976 8.518 13.207 8.918 19.445 5.313 18.985 5.05 18.525 4.782 18.294 4.65 0 15.213 0 15.477 2.94 13.78"/>
      <polygon points="20.136 5.714 19.906 5.58 0 17.076 0 17.34 2.94 15.644 3.17 16.04 12.976 10.381 13.207 10.778 20.48 6.58 20.48 6.048 20.48 5.916"/>
      <polygon points="1.261 18.469 2.91 17.518 3.14 17.915 12.929 12.263 13.158 12.665 20.48 8.437 20.48 7.904 20.48 7.371 20.48 7.107 1.035 18.337"/>
      <polyline points="12.929 14.127 13.158 14.529 20.48 10.3 20.48 9.768 20.48 9.234 20.48 8.97 2.646 19.267 2.877 19.399 4.551 18.43 4.782 18.831"/>
      <polygon points="4.487 20.33 6.162 19.36 6.392 19.76 12.929 15.984 13.158 16.385 20.48 12.158 20.48 11.624 20.48 11.096 20.48 10.829 4.254 20.194"/>
      <polygon points="6.097 21.26 7.772 20.294 8.004 20.69 12.929 17.847 13.158 18.244 20.48 14.017 20.48 13.488 20.48 12.955 20.48 12.69 5.868 21.128"/>
      <polygon points="7.479 22.057 7.71 22.189 9.388 21.221 9.614 21.622 12.929 19.705 13.158 20.105 20.48 15.878 20.48 15.345 20.48 14.812 20.48 14.547"/>
      <polygon points="9.319 23.123 10.994 22.15 11.224 22.552 12.929 21.563 13.158 21.964 20.48 17.741 20.48 17.208 20.48 16.675 20.48 16.411 9.089 22.991"/>
      <polygon points="13.003 1.594 12.541 1.33 12.541 1.33 12.082 1.066 11.852 .93 0 7.772 0 8.036 2.94 6.342 3.17 6.736 6.485 4.823 6.722 5.224"/>
    </g>
  </g>
</svg>
