<svg width="32" height="32" viewBox="0 0 32 32" fill="none" xmlns="http://www.w3.org/2000/svg">
<path fill-rule="evenodd" clip-rule="evenodd" d="M32 15.9999C32 13.9059 31.5834 11.8118 30.7821 9.87706C29.9805 7.94234 28.7942 6.16698 27.3136 4.68634C25.833 3.20538 24.0576 2.01945 22.1229 1.21786C20.1882 0.416575 18.0941 -6.48499e-05 16 -6.48499e-05C13.9059 -6.48499e-05 11.8115 0.416575 9.8768 1.21786C7.94208 2.01945 6.16704 3.20538 4.68608 4.68634C3.20544 6.16698 2.0192 7.94234 1.21792 9.87706C0.41632 11.8118 0 13.9059 0 15.9999C0 18.094 0.41632 20.1881 1.21792 22.1228C2.0192 24.0575 3.20544 25.8329 4.68608 27.3139C6.16704 28.7945 7.94208 29.9807 9.8768 30.782C11.8115 31.5833 13.9059 31.9999 16 31.9999C18.0941 31.9999 20.1882 31.5833 22.1229 30.782C24.0576 29.9807 25.833 28.7945 27.3136 27.3139C28.7942 25.8329 29.9805 24.0575 30.7821 22.1228C31.5834 20.1881 32 18.094 32 15.9999Z" fill="white"/>
<path fill-rule="evenodd" clip-rule="evenodd" d="M11.8547 3.38361C13.3453 2.89369 14.9382 2.66969 16.5162 2.73017C18.0944 2.79065 19.6579 3.13593 21.113 3.74393C22.5683 4.35193 23.9152 5.22297 25.0675 6.29753C26.5917 7.71929 27.775 9.49753 28.4848 11.4867C29.1949 13.4761 29.4314 15.6764 29.1574 17.7711C28.8838 19.8659 28.0998 21.8553 26.9139 23.566C25.728 25.2767 24.1398 26.7084 22.2746 27.7004C20.4093 28.6921 18.2662 29.2438 16.1539 29.2758C14.0416 29.3078 11.9597 28.8204 10.095 27.895C8.23073 26.9695 6.58337 25.6063 5.33249 23.9036C4.08161 22.2009 3.22721 20.1587 2.88801 18.0748C2.54881 15.9907 2.72481 13.8646 3.37473 11.8812C3.86593 10.3817 4.62817 8.96409 5.6048 7.73561H4.12033V5.28185H9.93696V10.7135H7.48321V9.22937C6.68321 10.2355 6.05857 11.3967 5.65633 12.6255C5.12417 14.2511 4.9808 15.9951 5.25633 17.6969C5.59873 19.8137 6.58881 21.8649 8.06657 23.4457C9.83425 25.3363 12.2995 26.5542 14.8659 26.8207C17.432 27.0873 20.0992 26.4028 22.2173 24.9286C24.3354 23.4543 25.905 21.1903 26.5421 18.6899C27.1792 16.1894 26.8838 13.4524 25.735 11.142C24.5862 8.83161 22.5837 6.94841 20.1891 5.95897C17.7946 4.96921 15.0077 4.87385 12.6038 5.66361L11.8547 3.38361Z" fill="url(#paint0_linear)"/>
<path fill-rule="evenodd" clip-rule="evenodd" d="M13.3077 15.2661C13.8306 15.2525 14.3538 15.2525 14.877 15.2661C16.3896 15.3049 17.607 16.5158 17.607 18.0289C17.607 19.5419 16.3902 20.7735 14.877 20.7918C13.5281 20.8078 12.1787 20.8078 10.8294 20.7918C10.5003 20.7878 10.2378 20.5141 10.2378 20.1847C10.2378 19.8557 10.5003 19.5862 10.8294 19.5779C12.1782 19.5434 13.5274 19.5434 14.877 19.5779C15.7322 19.5997 16.4262 18.8844 16.4262 18.0289C16.4262 17.1734 15.7325 16.48 14.877 16.48C14.7668 16.48 14.6566 16.48 14.5464 16.48C14.0235 16.4932 13.5003 16.4932 12.9771 16.48C11.4645 16.4411 10.2471 15.23 10.2471 13.7171C10.2471 12.2039 11.464 10.9725 12.9771 10.9542C14.326 10.938 15.6751 10.938 17.0243 10.9542C17.3536 10.9582 17.6158 11.232 17.6158 11.561C17.6158 11.8904 17.3533 12.1596 17.0243 12.1681C15.6756 12.2027 14.3265 12.2027 12.9771 12.1681C12.1219 12.1461 11.4279 12.8616 11.4279 13.7171C11.4279 14.5726 12.1216 15.2661 12.9771 15.2661C13.0873 15.2661 13.1975 15.2661 13.3077 15.2661Z" fill="black"/>
<path fill-rule="evenodd" clip-rule="evenodd" d="M11.0608 19.186C11.1457 19.1842 11.2303 19.1822 11.3152 19.1807C11.5581 19.176 11.8013 19.1725 12.0445 19.1699L13.6924 16.8759C13.5539 16.8757 13.4152 16.8744 13.2767 16.8724C13.2055 16.8711 13.1344 16.8699 13.0633 16.8681C13.0277 16.8674 12.9939 16.8666 12.9561 16.8656C12.918 16.8644 12.8805 16.8629 12.8427 16.8604C12.8076 16.8581 12.7725 16.8554 12.7375 16.8519L11.0608 19.186Z" fill="black"/>
<path fill-rule="evenodd" clip-rule="evenodd" d="M14.1615 14.8699C14.3 14.8701 14.4387 14.8714 14.5775 14.8736C14.6486 14.8749 14.7197 14.8761 14.7908 14.8776C14.8264 14.8786 14.8602 14.8791 14.8983 14.8804C14.9361 14.8814 14.9739 14.8831 15.0115 14.8857C15.0465 14.8879 15.0813 14.8907 15.1162 14.8939L16.7929 12.5598C16.7082 12.5618 16.6233 12.5636 16.5387 12.5653C16.2955 12.5701 16.0523 12.5736 15.8091 12.5761L14.1615 14.8699Z" fill="black"/>
<path fill-rule="evenodd" clip-rule="evenodd" d="M21.7916 12.0861C22.02 12.3349 22.1342 12.6537 22.1342 13.0425C22.1342 13.5235 21.98 13.9016 21.6714 14.1769C21.3613 14.4522 20.9363 14.5899 20.3963 14.5899C19.8124 14.5899 19.3624 14.4333 19.0462 14.1202C18.771 13.8479 18.6333 13.5015 18.6333 13.081C18.6333 12.5183 18.8178 12.1069 19.1869 11.8467C19.3941 11.703 19.6021 11.6259 19.8109 11.6153V12.3141C19.6505 12.3595 19.5295 12.4178 19.4478 12.4888C19.3026 12.6159 19.23 12.8042 19.23 13.0538C19.23 13.3079 19.3325 13.5083 19.5375 13.6551C19.7424 13.8018 20.0325 13.8751 20.4076 13.8751C20.7827 13.8751 21.0637 13.7976 21.2505 13.6426C21.4373 13.4875 21.5307 13.2905 21.5307 13.0515C21.5307 12.8065 21.4505 12.6197 21.2902 12.4911C21.204 12.42 21.0747 12.361 20.9022 12.3141V11.6221C21.2668 11.6826 21.5632 11.8373 21.7916 12.0861ZM22.0412 18.8691C22.0412 18.6981 22.0261 18.5397 21.9958 18.3937C21.9656 18.2478 21.9096 18.1211 21.8279 18.0137C21.7568 17.9184 21.6691 17.839 21.5647 17.7754C21.4074 17.6756 21.2297 17.6257 21.0315 17.6257C20.8394 17.6257 20.6761 17.6692 20.5415 17.7562C20.4068 17.8431 20.3085 17.9721 20.2465 18.143C20.189 18.0311 20.1255 17.9464 20.0559 17.8889C19.9319 17.786 19.7678 17.7346 19.5636 17.7346C19.3654 17.7346 19.1952 17.786 19.0531 17.8889C18.8216 18.0598 18.7029 18.3502 18.6968 18.7601V20.3847H22.0412V18.8691ZM20.0151 18.8963V19.7176H19.2777V18.9825C19.2777 18.8207 19.2951 18.6875 19.3299 18.5832C19.3798 18.4622 19.4826 18.4017 19.6384 18.4017C19.7791 18.4017 19.877 18.4474 19.9323 18.5389C19.9875 18.6304 20.0151 18.7496 20.0151 18.8963ZM21.4604 19.7176V18.8963C21.4604 18.7496 21.4407 18.6354 21.4014 18.5537C21.3288 18.4054 21.1896 18.3313 20.9839 18.3313C20.8099 18.3313 20.6905 18.4032 20.6254 18.5469C20.5891 18.627 20.5702 18.7397 20.5687 18.8849V19.7176H21.4604ZM22.0412 15.7007H19.289V14.7001H18.6968V17.4092H19.289V16.4041H22.0412V15.7007Z" fill="black"/>
<defs>
<linearGradient id="paint0_linear" x1="2.04343" y1="13.297" x2="15.2222" y2="29.5764" gradientUnits="userSpaceOnUse">
<stop stop-color="#004CFF"/>
<stop offset="0.252131" stop-color="#00E0FB"/>
<stop offset="0.505709" stop-color="#87FF70"/>
<stop offset="0.755054" stop-color="#F8F500"/>
<stop offset="1" stop-color="#FF1A00"/>
</linearGradient>
</defs>
</svg>
