<svg xmlns="http://www.w3.org/2000/svg" width="32" height="32" viewBox="0 0 32 32">
  <defs>
    <linearGradient id="3pool-lp-a" x1="50%" x2="50%" y1="0%" y2="100%">
      <stop offset="0%" stop-color="#FF1A00"/>
      <stop offset="24.495%" stop-color="#F8F500"/>
      <stop offset="49.429%" stop-color="#87FF70"/>
      <stop offset="74.787%" stop-color="#00E0FB"/>
      <stop offset="100%" stop-color="#004CFF"/>
    </linearGradient>
  </defs>
  <g fill="none" fill-rule="evenodd">
    <polygon fill="url(#3pool-lp-a)" points="7.187 28.145 6.299 27.862 5.427 27.352 4.544 26.6 3.817 25.732 3.152 24.7 2.571 23.528 2.023 22.068 1.368 20.038 .76 17.782 .562 16.956 .264 15.179 .148 14.252 .019 12.523 .053 10.8 .264 9.1 .62 7.518 .855 6.523 1.368 5.113 1.989 3.962 3.346 2.121 4.121 1.453 4.971 .851 5.723 .472 6.798 .155 8.728 .021 10.376 .193 12.32 .584 14.483 1.218 16.766 2.033 19.045 3.004 19.263 3.078 21.466 4.174 23.41 5.366 24.918 6.591 25.322 6.881 26.738 8.489 27.054 9 27.796 10.716 28.009 11.375 28.154 12.093 28.214 12.827 28.214 13.628 28.156 14.329 27.87 15.763 27.677 16.399 27.439 16.956 27.107 17.518 26.738 17.982 26.355 18.298 25.27 18.889 24.001 19.319 22.172 19.798 20.405 20.231 18.283 20.738 16.733 21.162 16.147 21.302 14.14 21.94 13.194 22.301 12.783 22.453 12.665 23.027 12.422 23.733 12.205 24.333 11.969 24.846 11.402 25.917 10.71 26.806 9.96 27.465 8.924 28.008 8.046 28.179"/>
    <g fill-rule="nonzero" transform="translate(7.424)">
      <polygon fill="#FBF100" points="4.474 8.149 4.23 8.487 4.437 10.196 4.63 9.798"/>
      <polygon fill="#A40000" points="1.305 0 0 .08 .644 .31 1.788 .23"/>
      <polygon fill="#FFAE00" points="4.245 6.548 3.924 6.828 4.229 8.486 4.474 8.148"/>
      <polygon fill="#A80000" points="1.788 .23 .644 .31 1.289 .819 2.272 .728"/>
      <polygon fill="#FF7300" points="3.949 5.04 3.528 5.268 3.924 6.829 4.245 6.548"/>
      <polygon fill="#B60000" points="2.271 .728 1.289 .819 1.917 1.593 2.742 1.482"/>
      <polygon fill="#FF3F00" points="3.592 3.668 3.052 3.849 3.527 5.268 3.949 5.04"/>
      <polygon fill="#D60000" points="2.742 1.482 1.917 1.594 2.51 2.613 3.187 2.471"/>
      <polygon fill="#FF1300" points="3.186 2.471 2.51 2.613 3.052 3.849 3.592 3.668"/>
    </g>
    <g fill-rule="nonzero" transform="translate(12.32 .567)">
      <polygon fill="#16FFE1" points="2.207 12.941 1.075 13.179 1.02 14.454 2.195 14.147"/>
      <polygon fill="#4DFFAA" points="2.217 11.634 1.106 11.793 1.075 13.179 2.207 12.941"/>
      <polygon fill="#80FF77" points="2.225 10.259 1.111 10.332 1.106 11.793 2.217 11.634"/>
      <polygon fill="#B7FF40" points="2.23 8.853 1.089 8.836 1.11 10.332 2.225 10.259"/>
      <polygon fill="#EBFF0C" points="2.233 7.454 1.041 7.344 1.089 8.836 2.23 8.853"/>
      <polygon fill="#ED0400" points="2.164 .623 0 0 .162 .205 2.179 .804"/>
      <polygon fill="#FC0" points="2.233 6.099 .969 5.898 1.041 7.344 2.233 7.454"/>
      <polygon fill="#F10800" points="2.179 .805 .161 .205 .322 .652 2.193 1.214"/>
      <polygon fill="#FF9800" points="2.23 4.827 .874 4.537 .969 5.898 2.233 6.099"/>
      <polygon fill="#FF1300" points="2.193 1.214 .323 .652 .479 1.33 2.206 1.84"/>
      <polygon fill="#FF6C00" points="2.225 3.672 .758 3.299 .874 4.536 2.23 4.827"/>
      <polygon fill="#FF2900" points="2.205 1.84 .478 1.329 .625 2.22 2.216 2.667"/>
      <polygon fill="#FF4700" points="2.216 2.668 .625 2.221 .758 3.3 2.225 3.672"/>
    </g>
    <g fill-rule="nonzero" transform="translate(10.376 .165)">
      <polygon fill="#13FCE4" points="3.02 13.581 2.186 13.944 2.083 15.285 2.964 14.857"/>
      <polygon fill="#49FFAD" points="3.05 12.195 2.239 12.484 2.185 13.943 3.019 13.581"/>
      <polygon fill="#80FF77" points="3.054 10.734 2.185 10.944 2.239 12.484 3.05 12.195"/>
      <polygon fill="#BAFF3C" points="3.033 9.238 2.191 9.365 2.241 10.944 3.054 10.734"/>
      <polygon fill="#F1FC06" points="2.985 7.746 2.09 7.789 2.191 9.365 3.032 9.238"/>
      <polygon fill="#D10000" points="1.944 .402 0 0 .32 .221 2.105 .607"/>
      <polygon fill="#FFC100" points="2.913 6.299 1.94 6.259 2.09 7.789 2.985 7.746"/>
      <polygon fill="#D60000" points="2.106 .607 .32 .221 .64 .698 2.267 1.054"/>
      <polygon fill="#FF8900" points="2.818 4.938 1.746 4.819 1.94 6.259 2.913 6.299"/>
      <polygon fill="#E40000" points="2.267 1.054 .64 .698 .951 1.419 2.423 1.731"/>
      <polygon fill="#FF5D00" points="2.702 3.701 1.511 3.509 1.746 4.819 2.818 4.939"/>
      <polygon fill="#FF1300" points="2.423 1.732 .951 1.42 1.244 2.365 2.569 2.622"/>
      <polygon fill="#FF3400" points="2.569 2.622 1.244 2.365 1.511 3.509 2.702 3.701"/>
    </g>
    <g fill-rule="nonzero" transform="translate(14.483 1.19)">
      <polygon fill="#1CFFDB" points="1.41 12.208 .043 12.318 .031 13.525 1.436 13.342"/>
      <polygon fill="#50FFA7" points="1.403 10.982 .053 11.01 .043 12.318 1.41 12.207"/>
      <polygon fill="#80FF77" points="1.414 9.698 .061 9.636 .054 11.011 1.403 10.983"/>
      <polygon fill="#B4FF43" points="1.443 8.387 .066 8.23 .061 9.636 1.414 9.697"/>
      <polygon fill="#E4FF13" points="1.491 7.086 .069 6.831 .067 8.23 1.444 8.388"/>
      <polygon fill="gold" points="1.555 5.83 .069 5.476 .069 6.83 1.491 7.086"/>
      <polygon fill="#FF1E00" points="2.282 .817 0 0 .015 .182 2.168 .971"/>
      <polygon fill="#FFA700" points="1.634 4.653 .066 4.204 .069 5.476 1.555 5.83"/>
      <polygon fill="#FF1E00" points="2.168 .971 .016 .181 .03 .591 2.053 1.337"/>
      <polygon fill="#FF7E00" points="1.726 3.588 .06 3.049 .066 4.204 1.634 4.653"/>
      <polygon fill="#FF2900" points="2.053 1.337 .03 .591 .042 1.217 1.938 1.907"/>
      <polygon fill="#FF5900" points="1.828 2.664 .052 2.044 .06 3.049 1.725 3.587"/>
      <polygon fill="#FF3B00" points="1.938 1.906 .042 1.217 .053 2.044 1.828 2.663"/>
    </g>
    <g fill-rule="nonzero" transform="translate(10.917 13.658)">
      <polygon fill="#0CF" points="1.694 8.813 3.531 8.119 3.165 8.313 1.301 9.022"/>
      <polygon fill="#00DCFE" points="2.053 8.496 3.866 7.824 3.531 8.119 1.694 8.813"/>
      <polygon fill="#09F0EE" points="2.369 8.077 4.161 7.435 3.866 7.824 2.053 8.496"/>
      <polygon fill="#1CFFDB" points="2.633 7.569 4.409 6.964 4.161 7.436 2.369 8.078"/>
      <polygon fill="#33FFC4" points="2.84 6.983 4.603 6.42 4.409 6.964 2.634 7.569"/>
      <polygon fill="#4DFFAA" points="2.981 6.333 4.737 5.817 4.603 6.419 2.839 6.982"/>
      <polygon fill="#63FF94" points="3.055 5.637 4.808 5.172 4.737 5.817 2.981 6.333"/>
      <polygon fill="#7DFF7A" points="3.058 4.912 4.814 4.5 4.808 5.172 3.055 5.637"/>
      <polygon fill="#97FF60" points="2.99 4.178 4.753 3.82 4.813 4.5 3.058 4.912"/>
      <polygon fill="#B1FF46" points="2.853 3.453 4.629 3.149 4.753 3.82 2.99 4.177"/>
      <polygon fill="#C7FF30" points="2.65 2.757 4.443 2.504 4.629 3.149 2.853 3.453"/>
      <polygon fill="#DEFF19" points="2.386 2.109 4.199 1.905 4.442 2.505 2.65 2.757"/>
      <polygon fill="#FC0" points="0 .05 1.992 0 2.401 .066 .441 .122"/>
      <polygon fill="#F1FC06" points="2.068 1.526 3.907 1.365 4.2 1.905 2.386 2.109"/>
      <polygon fill="#FC0" points=".441 .122 2.401 .066 2.808 .242 .88 .312"/>
      <polygon fill="#FFEA00" points="1.704 1.023 3.571 .9 3.907 1.365 2.068 1.525"/>
      <polygon fill="#FFD000" points=".88 .312 2.808 .242 3.201 .522 1.305 .615"/>
      <polygon fill="#FFDB00" points="1.304 .615 3.201 .522 3.57 .9 1.704 1.023"/>
    </g>
    <g fill-rule="nonzero" transform="translate(8.728)">
      <polygon fill="#BEFF39" points="3.838 9.53 3.325 9.797 3.403 11.45 3.888 11.109"/>
      <polygon fill="#F8F500" points="3.737 7.954 3.17 8.148 3.325 9.798 3.838 9.53"/>
      <polygon fill="#B00" points="1.647 .165 0 0 .483 .23 1.967 .386"/>
      <polygon fill="#FFB900" points="3.587 6.424 2.941 6.548 3.17 8.148 3.737 7.954"/>
      <polygon fill="#BF0000" points="1.967 .386 .483 .23 .967 .728 2.287 .863"/>
      <polygon fill="#FF7E00" points="3.393 4.984 2.644 5.04 2.94 6.547 3.587 6.424"/>
      <polygon fill="#CD0000" points="2.287 .863 .967 .729 1.438 1.482 2.598 1.584"/>
      <polygon fill="#FF4E00" points="3.159 3.674 2.288 3.669 2.644 5.04 3.393 4.984"/>
      <polygon fill="#E80000" points="2.598 1.584 1.438 1.482 1.882 2.471 2.891 2.53"/>
      <polygon fill="#F20" points="2.891 2.53 1.882 2.471 2.288 3.669 3.158 3.674"/>
    </g>
    <g fill-rule="nonzero" transform="translate(11.068 14.68)">
      <polygon fill="#00D0FF" points=".408 8.186 1.902 7.473 1.543 7.79 .019 8.531"/>
      <polygon fill="#00E4F8" points=".75 7.731 2.217 7.054 1.901 7.473 .408 8.186"/>
      <polygon fill="#16FFE1" points="1.036 7.177 2.482 6.546 2.218 7.054 .75 7.731"/>
      <polygon fill="#2CFFCA" points="1.258 6.539 2.688 5.96 2.482 6.546 1.036 7.178"/>
      <polygon fill="#46FFB1" points="1.41 5.831 2.83 5.31 2.688 5.96 1.258 6.539"/>
      <polygon fill="#63FF94" points="1.488 5.071 2.904 4.614 2.83 5.31 1.41 5.83"/>
      <polygon fill="#7DFF7A" points="1.488 4.28 2.907 3.888 2.903 4.613 1.487 5.071"/>
      <polygon fill="#9AFF5D" points="1.412 3.479 2.839 3.154 2.906 3.889 1.488 4.281"/>
      <polygon fill="#B7FF40" points="1.26 2.688 2.702 2.43 2.839 3.154 1.412 3.479"/>
      <polygon fill="#D1FF26" points="1.036 1.928 2.499 1.734 2.702 2.429 1.26 2.688"/>
      <polygon fill="#E7FF0F" points=".747 1.22 2.235 1.085 2.499 1.734 1.037 1.928"/>
      <polygon fill="#FBF100" points=".398 .583 1.917 .502 2.235 1.085 .747 1.22"/>
      <polygon fill="#FFDB00" points="0 .034 1.553 0 1.917 .502 .398 .583"/>
    </g>
    <g fill-rule="nonzero" transform="translate(.363 4.76)">
      <polygon fill="#00B4FF" points=".848 14.783 1.102 15.608 .675 13.986 .413 13.127"/>
      <polygon fill="#16FFE1" points=".185 12.197 .419 13.157 .676 13.986 .396 12.306 0 10.902"/>
      <polygon fill="#56FFA0" points=".127 11.41 .396 12.305 .273 10.607 0 9.675"/>
      <polygon fill="#97FF60" points="0 9.675 .272 10.607 .309 8.934 .036 7.964"/>
      <polygon fill="#D4FF23" points=".037 7.964 .31 8.934 .508 7.329 .238 6.323"/>
      <polygon fill="gold" points=".237 6.323 .507 7.329 .863 5.833 .599 4.793"/>
      <polygon fill="#FF9400" points=".6 4.793 .864 5.833 1.371 4.489 1.116 3.417"/>
      <polygon fill="#FF5900" points="1.116 3.417 1.371 4.489 2.018 3.332 1.775 2.232"/>
      <polygon fill="#FF2500" points="1.774 2.233 2.017 3.332 2.788 2.396 2.56 1.273"/>
      <polygon fill="#C1FF36" points="12.725 10.041 12.751 10.99 12.914 12.734 12.892 11.823"/>
      <polygon fill="#DF0000" points="2.56 1.274 2.788 2.396 3.663 1.709 3.452 .569"/>
      <polygon fill="#FFEA00" points="12.391 8.276 12.423 9.264 12.751 10.99 12.725 10.041"/>
      <polygon fill="#B00" points="3.452 .568 3.663 1.709 4.62 1.292 4.428 .139"/>
      <polygon fill="#FFA700" points="11.895 6.577 11.938 7.602 12.424 9.264 12.391 8.276"/>
      <polygon fill="#9F0000" points="4.427 .139 4.62 1.291 5.632 1.158 5.46 0"/>
      <polygon fill="#FF6C00" points="11.251 4.992 11.307 6.05 11.938 7.602 11.896 6.577"/>
      <polygon fill="#920000" points="5.46 0 5.632 1.158 6.673 1.314 6.522 .157"/>
      <polygon fill="#FF3400" points="10.475 3.564 10.547 4.653 11.307 6.05 11.251 4.992"/>
      <polygon fill="#960000" points="6.522 .158 6.673 1.315 7.714 1.758 7.584 .609"/>
      <polygon fill="#F10800" points="9.589 2.336 9.678 3.451 10.547 4.653 10.475 3.564"/>
      <polygon fill="#A40000" points="7.584 .609 7.714 1.758 8.724 2.477 8.616 1.342"/>
      <polygon fill="#C40000" points="8.616 1.342 8.724 2.477 9.678 3.451 9.588 2.336"/>
    </g>
    <g fill-rule="nonzero" transform="translate(.129 3.645)">
      <polygon fill="#53FFA4" points=".129 11.573 .362 12.524 .235 10.789 0 9.816"/>
      <polygon fill="#97FF60" points="0 9.816 .235 10.789 .271 9.079 .036 8.083"/>
      <polygon fill="#D7FF1F" points=".035 8.083 .271 9.079 .472 7.438 .237 6.42"/>
      <polygon fill="#FFD300" points=".237 6.419 .471 7.437 .834 5.908 .602 4.869"/>
      <polygon fill="#FF9100" points=".602 4.869 .834 5.908 1.35 4.532 1.123 3.473"/>
      <polygon fill="#FF5200" points="1.124 3.473 1.35 4.532 2.009 3.347 1.789 2.271"/>
      <polygon fill="#FF1E00" points="1.789 2.271 2.009 3.347 2.795 2.388 2.582 1.297"/>
      <polygon fill="#D60000" points="2.581 1.297 2.794 2.388 3.686 1.683 3.482 .581"/>
      <polygon fill="#AD0000" points="3.483 .581 3.686 1.683 4.662 1.253 4.469 .143"/>
      <polygon fill="#FFA300" points="12.019 6.652 12.13 7.692 12.625 9.39 12.52 8.372"/>
      <polygon fill="#920000" points="4.468 .143 4.662 1.253 5.695 1.114 5.512 0"/>
      <polygon fill="#FF6400" points="11.367 5.047 11.486 6.107 12.13 7.692 12.019 6.652"/>
      <polygon fill="#840000" points="5.512 0 5.695 1.115 6.757 1.272 6.586 .157"/>
      <polygon fill="#FF2D00" points="10.582 3.602 10.709 4.679 11.485 6.106 11.367 5.046"/>
      <polygon fill="#890000" points="6.585 .157 6.757 1.272 7.818 1.723 7.659 .612"/>
      <polygon fill="#E40000" points="9.686 2.358 9.823 3.45 10.71 4.679 10.583 3.601"/>
      <polygon fill="#9B0000" points="7.659 .612 7.818 1.723 8.85 2.456 8.702 1.353"/>
      <polygon fill="#B00" points="8.702 1.353 8.85 2.456 9.823 3.451 9.686 2.359"/>
      <polygon fill="#13FCE4" points=".292 12.352 .419 13.311 .13 11.573 .002 10.607"/>
    </g>
    <g fill-rule="nonzero" transform="translate(.636 5.917)">
      <polygon fill="#19FFDE" points=".403 12.828 .647 13.581 .377 11.95 .124 11.147"/>
      <polygon fill="#56FFA0" points=".124 11.147 .377 11.95 .257 10.303 0 9.449"/>
      <polygon fill="#94FF63" points="0 9.449 .257 10.303 .294 8.681 .037 7.776"/>
      <polygon fill="#D1FF26" points=".037 7.776 .294 8.681 .487 7.125 .235 6.171"/>
      <polygon fill="#FFDB00" points=".235 6.17 .488 7.125 .835 5.677 .591 4.675"/>
      <polygon fill="#FF9C00" points=".591 4.675 .834 5.677 1.328 4.375 1.098 3.33"/>
      <polygon fill="#FF6000" points="1.098 3.331 1.328 4.375 1.957 3.256 1.745 2.174"/>
      <polygon fill="#FF3000" points="1.745 2.174 1.957 3.256 2.706 2.351 2.516 1.238"/>
      <polygon fill="#C1FF36" points="12.479 9.833 12.379 10.697 12.537 12.387 12.641 11.576"/>
      <polygon fill="#F10800" points="2.515 1.238 2.705 2.351 3.555 1.688 3.39 .551"/>
      <polygon fill="#FBF100" points="12.151 8.106 12.06 9.023 12.379 10.697 12.479 9.832"/>
      <polygon fill="#C80000" points="3.39 .551 3.555 1.688 4.484 1.286 4.347 .134"/>
      <polygon fill="#FFAE00" points="11.666 6.444 11.589 7.412 12.061 9.023 12.151 8.106"/>
      <polygon fill="#AD0000" points="4.347 .134 4.485 1.286 5.468 1.159 5.36 0"/>
      <polygon fill="#FF7300" points="11.034 4.893 10.976 5.909 11.589 7.413 11.665 6.444"/>
      <polygon fill="#A40000" points="5.36 0 5.468 1.159 6.478 1.313 6.401 .156"/>
      <polygon fill="#FF3F00" points="10.274 3.496 10.238 4.554 10.976 5.909 11.034 4.892"/>
      <polygon fill="#A40000" points="6.401 .157 6.479 1.313 7.489 1.744 7.441 .6"/>
      <polygon fill="#FF1300" points="9.405 2.293 9.395 3.388 10.238 4.554 10.274 3.495"/>
      <polygon fill="#B60000" points="7.441 .6 7.489 1.745 8.47 2.443 8.452 1.319"/>
      <polygon fill="#D10000" points="8.452 1.318 8.47 2.442 9.395 3.388 9.405 2.293"/>
      <polygon fill="#00BCFF" points=".829 14.45 1.061 15.155 .647 13.581 .403 12.828"/>
    </g>
    <g fill-rule="nonzero" transform="translate(.893 7.076)">
      <polygon fill="#00C4FF" points=".804 13.996 .984 14.553 .586 13.039 .39 12.421"/>
      <polygon fill="#1CFFDB" points=".391 12.422 .586 13.04 .326 11.472 .12 10.791"/>
      <polygon fill="#56FFA0" points=".119 10.791 .326 11.472 .211 9.889 0 9.144"/>
      <polygon fill="#94FF63" points="0 9.144 .211 9.889 .248 8.33 .037 7.522"/>
      <polygon fill="#CEFF29" points=".037 7.522 .248 8.331 .435 6.837 .23 5.967"/>
      <polygon fill="#00B0FF" points="11.791 15.951 11.559 16.445 11.113 17.718 11.327 17.275"/>
      <polygon fill="#FFE200" points=".23 5.966 .435 6.837 .77 5.447 .577 4.518"/>
      <polygon fill="#0CF4EB" points="12.111 14.476 11.866 15.028 11.56 16.445 11.792 15.951"/>
      <polygon fill="#FFA300" points=".577 4.518 .769 5.447 1.245 4.198 1.071 3.216"/>
      <polygon fill="#46FFB1" points="12.276 12.888 12.024 13.503 11.866 15.028 12.111 14.476"/>
      <polygon fill="#FF6C00" points="1.071 3.216 1.245 4.198 1.851 3.125 1.7 2.097"/>
      <polygon fill="#80FF77" points="12.28 11.228 12.027 11.908 12.024 13.503 12.276 12.888"/>
      <polygon fill="#FF3B00" points="1.7 2.097 1.85 3.125 2.571 2.259 2.448 1.192"/>
      <polygon fill="#BEFF39" points="12.122 9.538 11.874 10.285 12.027 11.908 12.281 11.227"/>
      <polygon fill="#FF1300" points="2.448 1.192 2.571 2.258 3.389 1.624 3.299 .528"/>
      <polygon fill="#F8F500" points="11.803 7.864 11.567 8.679 11.874 10.285 12.122 9.538"/>
      <polygon fill="#DA0000" points="3.299 .528 3.389 1.624 4.283 1.241 4.228 .127"/>
      <polygon fill="#FFB600" points="11.332 6.253 11.113 7.132 11.567 8.679 11.803 7.864"/>
      <polygon fill="#C40000" points="4.228 .127 4.282 1.241 5.228 1.121 5.211 0"/>
      <polygon fill="#FF7E00" points="10.719 4.75 10.523 5.688 11.113 7.132 11.332 6.253"/>
      <polygon fill="#B60000" points="5.211 0 5.228 1.121 6.2 1.271 6.222 .154"/>
      <polygon fill="#FF4A00" points="9.981 3.396 9.814 4.388 10.523 5.688 10.719 4.75"/>
      <polygon fill="#B00" points="6.222 .154 6.199 1.271 7.17 1.687 7.232 .585"/>
      <polygon fill="#FF1E00" points="9.138 2.229 9.003 3.267 9.814 4.388 9.981 3.396"/>
      <polygon fill="#C80000" points="7.232 .585 7.17 1.687 8.113 2.358 8.213 1.283"/>
      <polygon fill="#E40000" points="8.213 1.284 8.114 2.359 9.003 3.267 9.138 2.229"/>
    </g>
    <g fill-rule="nonzero" transform="translate(6.654 13.887)">
      <polygon fill="#00C4FF" points="3.862 8.49 5.845 7.806 5.47 7.482 3.458 8.141"/>
      <polygon fill="#00D0FF" points="3.458 8.142 5.47 7.482 5.123 7.07 3.082 7.696"/>
      <polygon fill="#00E0FB" points="3.083 7.696 5.123 7.069 4.812 6.578 2.746 7.166"/>
      <polygon fill="#0FF8E7" points="2.746 7.166 4.812 6.578 4.546 6.02 2.457 6.565"/>
      <polygon fill="#00B4FF" points="2.156 9.22 3.862 8.491 3.458 8.141 1.715 8.839"/>
      <polygon fill="#00C0FF" points="1.715 8.839 3.458 8.142 3.083 7.696 1.306 8.354"/>
      <polygon fill="#00A8FF" points="2.617 9.487 4.286 8.736 3.863 8.491 2.156 9.22"/>
      <polygon fill="#23FFD4" points="2.457 6.564 4.545 6.02 4.33 5.409 2.222 5.906"/>
      <polygon fill="#00D4FF" points="1.306 8.354 3.083 7.696 2.746 7.166 .938 7.777"/>
      <polygon fill="#00A8FF" points="3.088 9.634 4.718 8.869 4.286 8.736 2.618 9.487"/>
      <polygon fill="#06ECF1" points=".938 7.776 2.746 7.166 2.457 6.565 .621 7.121"/>
      <polygon fill="#39FFBE" points="2.222 5.906 4.329 5.41 4.171 4.762 2.047 5.208"/>
      <polygon fill="#00A8FF" points="3.554 9.655 5.148 8.889 4.718 8.869 3.087 9.634"/>
      <polygon fill="#1CFFDB" points=".62 7.12 2.456 6.564 2.222 5.906 .362 6.403"/>
      <polygon fill="#53FFA4" points="2.048 5.208 4.171 4.762 4.073 4.093 1.939 4.486"/>
      <polygon fill="#36FFC1" points=".362 6.404 2.222 5.907 2.047 5.208 .169 5.642"/>
      <polygon fill="#6DFF8A" points="1.939 4.487 4.073 4.094 4.038 3.421 1.898 3.761"/>
      <polygon fill="#50FFA7" points=".17 5.642 2.048 5.208 1.939 4.487 .048 4.856"/>
      <polygon fill="#87FF70" points="1.898 3.761 4.038 3.421 4.068 2.762 1.927 3.05"/>
      <polygon fill="#6AFF8D" points=".048 4.856 1.939 4.487 1.898 3.761 0 4.065"/>
      <polygon fill="#A0FF56" points="1.927 3.05 4.069 2.762 4.163 2.132 2.026 2.371"/>
      <polygon fill="#87FF70" points="0 4.065 1.898 3.761 1.927 3.05 .028 3.289"/>
      <polygon fill="#B7FF40" points="2.026 2.371 4.164 2.132 4.321 1.55 2.192 1.742"/>
      <polygon fill="#A4FF53" points=".029 3.289 1.927 3.05 2.026 2.371 .132 2.549"/>
      <polygon fill="#D1FF26" points="2.192 1.742 4.321 1.55 4.536 1.03 2.42 1.181"/>
      <polygon fill="#BEFF39" points=".132 2.549 2.026 2.371 2.191 1.742 .309 1.863"/>
      <polygon fill="#E4FF13" points="2.42 1.18 4.536 1.029 4.804 .585 2.707 .7"/>
      <polygon fill="#D7FF1F" points=".309 1.863 2.191 1.742 2.42 1.181 .556 1.25"/>
      <polygon fill="#EEFF09" points=".555 1.25 2.42 1.18 2.706 .7 .865 .726"/>
      <polygon fill="#FFEA00" points=".865 .726 2.706 .701 3.043 .315 1.229 .305"/>
      <polygon fill="gold" points="1.229 .305 3.043 .316 3.422 .036 1.64 0"/>
    </g>
    <g fill-rule="nonzero" transform="translate(1.267 9.248)">
      <polygon fill="#00F" points="4.16 18.104 4.069 18.035 3.279 17.352 3.325 17.382"/>
      <polygon fill="#0010FF" points="3.325 17.382 3.279 17.352 2.543 16.484 2.547 16.464"/>
      <polygon fill="#0000F1" points="5.032 18.614 4.894 18.516 4.069 18.035 4.16 18.104"/>
      <polygon fill="#0038FF" points="2.547 16.464 2.543 16.484 1.879 15.452 1.844 15.372"/>
      <polygon fill="#0000E8" points="5.92 18.897 5.732 18.784 4.893 18.516 5.032 18.614"/>
      <polygon fill="#0064FF" points="1.845 15.372 1.88 15.451 1.304 14.28 1.236 14.132"/>
      <polygon fill="#0000ED" points="6.802 18.947 6.566 18.831 5.733 18.784 5.92 18.897"/>
      <polygon fill="#0098FF" points="1.235 14.133 1.304 14.28 .831 12.997 .735 12.775"/>
      <polygon fill="#00F" points="7.657 18.761 7.373 18.655 6.566 18.831 6.802 18.947"/>
      <polygon fill="#00D4FF" points=".735 12.775 .83 12.997 .472 11.634 .355 11.332"/>
      <polygon fill="#0008FF" points="8.464 18.341 8.135 18.258 7.374 18.655 7.657 18.76"/>
      <polygon fill="#26FFD1" points=".356 11.332 .473 11.634 .239 10.223 .108 9.838"/>
      <polygon fill="#002CFF" points="9.201 17.697 8.831 17.649 8.135 18.258 8.463 18.341"/>
      <polygon fill="#5AFF9D" points=".108 9.838 .239 10.223 .137 8.8 0 8.33"/>
      <polygon fill="#0054FF" points="9.85 16.842 9.443 16.842 8.831 17.649 9.201 17.697"/>
      <polygon fill="#90FF66" points="0 8.33 .137 8.8 .171 7.4 .035 6.847"/>
      <polygon fill="#08F" points="10.394 15.797 9.955 15.854 9.443 16.842 9.85 16.843"/>
      <polygon fill="#C7FF30" points=".035 6.847 .17 7.4 .34 6.059 .214 5.425"/>
      <polygon fill="#00C4FF" points="10.818 14.585 10.354 14.71 9.956 15.854 10.394 15.797"/>
      <polygon fill="#FBF100" points=".214 5.425 .34 6.059 .642 4.813 .534 4.103"/>
      <polygon fill="#16FFE1" points="11.109 13.236 10.627 13.437 10.354 14.71 10.818 14.585"/>
      <polygon fill="#FFB900" points=".534 4.103 .642 4.813 1.071 3.695 .987 2.916"/>
      <polygon fill="#4DFFAA" points="11.257 11.784 10.766 12.067 10.627 13.437 11.108 13.236"/>
      <polygon fill="#FF8600" points=".987 2.916 1.071 3.696 1.616 2.736 1.564 1.897"/>
      <polygon fill="#80FF77" points="11.26 10.266 10.766 10.635 10.766 12.067 11.258 11.784"/>
      <polygon fill="#FF5D00" points="1.565 1.897 1.616 2.736 2.265 1.963 2.251 1.075"/>
      <polygon fill="#B7FF40" points="11.112 8.722 10.626 9.18 10.766 10.635 11.26 10.266"/>
      <polygon fill="#FF3800" points="2.251 1.075 2.265 1.963 3 1.398 3.031 .474"/>
      <polygon fill="#EBFF0C" points="10.819 7.194 10.347 7.739 10.626 9.18 11.112 8.722"/>
      <polygon fill="#FF1A00" points="3.03 .474 3 1.398 3.802 1.059 3.881 .112"/>
      <polygon fill="#FFC800" points="10.385 5.722 9.937 6.352 10.347 7.739 10.819 7.193"/>
      <polygon fill="#F10800" points="3.882 .111 3.802 1.059 4.651 .956 4.782 0"/>
      <polygon fill="#FF9400" points="9.823 4.349 9.406 5.058 9.937 6.353 10.385 5.723"/>
      <polygon fill="#E80000" points="4.781 0 4.651 .956 5.523 1.093 5.706 .144"/>
      <polygon fill="#FF6800" points="9.147 3.112 8.768 3.893 9.406 5.058 9.823 4.349"/>
      <polygon fill="#ED0400" points="5.706 .144 5.523 1.093 6.395 1.469 6.631 .542"/>
      <polygon fill="#FF4300" points="8.375 2.046 8.04 2.887 8.768 3.892 9.147 3.112"/>
      <polygon fill="#FA0F00" points="6.63 .541 6.395 1.468 7.241 2.072 7.528 1.181"/>
      <polygon fill="#F20" points="7.529 1.181 7.241 2.072 8.04 2.888 8.375 2.046"/>
    </g>
    <g fill-rule="nonzero" transform="translate(1.104 8.197)">
      <polygon fill="#0CF" points=".772 13.433 .897 13.826 .518 12.383 .374 11.919"/>
      <polygon fill="#1FFFD7" points=".374 11.919 .519 12.383 .271 10.889 .115 10.351"/>
      <polygon fill="#0018FF" points="9.648 18.591 9.363 18.748 8.626 19.392 8.874 19.267"/>
      <polygon fill="#5AFF9D" points=".114 10.351 .271 10.889 .162 9.381 0 8.768"/>
      <polygon fill="#04F" points="10.33 17.694 10.013 17.893 9.363 18.748 9.648 18.591"/>
      <polygon fill="#94FF63" points="0 8.767 .163 9.381 .198 7.897 .036 7.209"/>
      <polygon fill="#007CFF" points="10.902 16.597 10.557 16.848 10.013 17.894 10.33 17.694"/>
      <polygon fill="#CAFF2C" points=".036 7.209 .198 7.897 .376 6.476 .223 5.715"/>
      <polygon fill="#00B8FF" points="11.348 15.324 10.98 15.635 10.557 16.848 10.902 16.596"/>
      <polygon fill="#FFEA00" points=".223 5.715 .376 6.476 .696 5.154 .558 4.325"/>
      <polygon fill="#0FF8E7" points="11.654 13.907 11.271 14.287 10.98 15.635 11.348 15.324"/>
      <polygon fill="#FFAE00" points=".558 4.326 .696 5.154 1.149 3.967 1.033 3.077"/>
      <polygon fill="#49FFAD" points="11.813 12.382 11.42 12.835 11.271 14.287 11.655 13.907"/>
      <polygon fill="#FF7A00" points="1.033 3.076 1.15 3.967 1.727 2.948 1.639 2.003"/>
      <polygon fill="#80FF77" points="11.816 10.787 11.422 11.317 11.421 12.835 11.813 12.382"/>
      <polygon fill="#FF4A00" points="1.639 2.004 1.727 2.948 2.414 2.126 2.36 1.137"/>
      <polygon fill="#BAFF3C" points="11.663 9.164 11.275 9.773 11.422 11.317 11.816 10.787"/>
      <polygon fill="#FF2500" points="2.359 1.137 2.413 2.126 3.193 1.524 3.177 .503"/>
      <polygon fill="#F1FC06" points="11.355 7.557 10.981 8.244 11.275 9.773 11.662 9.164"/>
      <polygon fill="#F10800" points="3.177 .503 3.192 1.525 4.043 1.162 4.071 .12"/>
      <polygon fill="#FFC100" points="10.901 6.011 10.548 6.773 10.981 8.245 11.355 7.558"/>
      <polygon fill="#DA0000" points="4.071 .119 4.044 1.162 4.944 1.051 5.017 0"/>
      <polygon fill="#FF8900" points="10.312 4.567 9.986 5.4 10.548 6.773 10.902 6.011"/>
      <polygon fill="#CD0000" points="5.016 0 4.944 1.051 5.869 1.195 5.988 .15"/>
      <polygon fill="#FF5900" points="9.602 3.267 9.31 4.163 9.986 5.4 10.312 4.567"/>
      <polygon fill="#D10000" points="5.988 .15 5.869 1.195 6.793 1.592 6.959 .566"/>
      <polygon fill="#FF3000" points="8.791 2.146 8.537 3.097 9.309 4.163 9.602 3.267"/>
      <polygon fill="#DF0000" points="6.959 .566 6.793 1.593 7.691 2.232 7.902 1.238"/>
      <polygon fill="#FA0F00" points="7.902 1.237 7.691 2.232 8.537 3.097 8.791 2.146"/>
    </g>
    <g fill-rule="nonzero" transform="translate(5.704 .08)">
      <polygon fill="#9F0000" points="1.094 .053 0 .393 .772 .322 1.719 0"/>
      <polygon fill="#960000" points="1.719 0 .772 .322 1.567 .542 2.363 .23"/>
      <polygon fill="#FFAB00" points="5.643 6.749 5.61 7.174 5.987 8.873 5.949 8.407"/>
      <polygon fill="#960000" points="2.363 .23 1.566 .542 2.362 1.05 3.008 .739"/>
      <polygon fill="#FF6C00" points="5.247 5.188 5.123 5.577 5.61 7.173 5.643 6.749"/>
      <polygon fill="#A80000" points="3.009 .739 2.362 1.05 3.137 1.832 3.637 1.514"/>
      <polygon fill="#FF3400" points="4.771 3.77 4.537 4.128 5.123 5.577 5.247 5.189"/>
      <polygon fill="#C80000" points="3.636 1.514 3.137 1.832 3.868 2.868 4.23 2.534"/>
      <polygon fill="#F10800" points="4.23 2.534 3.869 2.868 4.537 4.128 4.772 3.77"/>
    </g>
    <g fill-rule="nonzero" transform="translate(0 2.618)">
      <polygon fill="#53FFA4" points=".13 11.634 .258 12.6 .128 10.842 0 9.869"/>
      <polygon fill="#97FF60" points="0 9.869 .129 10.842 .164 9.11 .035 8.129"/>
      <polygon fill="#D7FF1F" points=".035 8.129 .164 9.11 .366 7.446 .237 6.458"/>
      <polygon fill="#FFD000" points=".237 6.458 .366 7.446 .731 5.896 .603 4.9"/>
      <polygon fill="#FF8D00" points=".602 4.9 .731 5.896 1.252 4.5 1.124 3.497"/>
      <polygon fill="#FF4E00" points="1.124 3.497 1.252 4.5 1.917 3.298 1.79 2.288"/>
      <polygon fill="#FF1A00" points="1.79 2.289 1.917 3.298 2.71 2.324 2.584 1.309"/>
      <polygon fill="#D10000" points="2.584 1.309 2.711 2.324 3.612 1.607 3.487 .587"/>
      <polygon fill="#FFE600" points="12.542 8.394 12.754 10.443 13.089 12.219 12.882 10.188"/>
      <polygon fill="#A80000" points="3.486 .587 3.611 1.608 4.597 1.17 4.474 .146"/>
      <polygon fill="#FF9F00" points="12.039 6.667 12.148 7.679 12.649 9.399 12.542 8.394"/>
      <polygon fill="#8D0000" points="4.474 .146 4.597 1.17 5.641 1.027 5.519 0"/>
      <polygon fill="#FF6000" points="11.386 5.056 11.496 6.073 12.148 7.679 12.04 6.667"/>
      <polygon fill="maroon" points="5.519 0 5.641 1.027 6.714 1.184 6.595 .156"/>
      <polygon fill="#FF2900" points="10.599 3.606 10.711 4.629 11.496 6.073 11.386 5.056"/>
      <polygon fill="maroon" points="6.595 .155 6.715 1.184 7.788 1.639 7.67 .61"/>
      <polygon fill="#DF0000" points="9.701 2.36 9.815 3.385 10.711 4.629 10.6 3.606"/>
      <polygon fill="#920000" points="7.67 .61 7.788 1.639 8.831 2.379 8.716 1.351"/>
      <polygon fill="#B20000" points="8.715 1.351 8.831 2.379 9.814 3.385 9.701 2.36"/>
      <polygon fill="#FFE600" points="12.314 7.562 12.542 8.394 12.881 10.189 12.641 9.355"/>
    </g>
    <g fill-rule="nonzero" transform="translate(4.121 .402)">
      <polygon fill="#B20000" points=".855 .428 0 1.034 .849 .645 1.583 .07"/>
      <polygon fill="#960000" points="1.583 .071 .849 .646 1.749 .55 2.355 0"/>
      <polygon fill="#890000" points="2.355 0 1.75 .55 2.676 .751 3.15 .221"/>
      <polygon fill="#890000" points="3.15 .22 2.676 .75 3.604 1.245 3.945 .728"/>
      <polygon fill="#FF2D00" points="6.12 3.806 6.136 4.324 6.817 5.785 6.706 5.255"/>
      <polygon fill="#9B0000" points="3.946 .728 3.604 1.245 4.506 2.021 4.72 1.51"/>
      <polygon fill="#E80000" points="5.452 2.546 5.358 3.057 6.136 4.323 6.12 3.806"/>
      <polygon fill="#B00" points="4.72 1.511 4.506 2.021 5.358 3.057 5.451 2.546"/>
      <polygon fill="#FF6400" points="6.705 5.255 6.817 5.786 7.384 7.401 7.193 6.852"/>
    </g>
    <g fill-rule="nonzero" transform="translate(1.932 .951)">
      <polygon fill="#D10000" points="1.414 1.151 .818 2.01 1.683 1.306 2.189 .485"/>
      <polygon fill="#A80000" points="2.189 .485 1.683 1.306 2.63 .883 3.039 .096"/>
      <polygon fill="#8D0000" points="3.039 .097 2.63 .883 3.633 .755 3.939 0"/>
      <polygon fill="maroon" points="3.939 0 3.633 .755 4.666 .927 4.865 .201"/>
      <polygon fill="#840000" points="4.865 .201 4.666 .927 5.698 1.396 5.793 .696"/>
      <polygon fill="#FF2900" points="8.325 3.774 8.513 4.428 9.27 5.884 9.007 5.236"/>
      <polygon fill="#920000" points="5.793 .696 5.698 1.397 6.702 2.152 6.695 1.472"/>
      <polygon fill="#DF0000" points="7.548 2.507 7.649 3.172 8.513 4.428 8.325 3.774"/>
      <polygon fill="#B20000" points="6.695 1.471 6.702 2.151 7.649 3.171 7.547 2.507"/>
      <polygon fill="#FF1A00" points=".733 2.075 .057 2.971 .818 2.009 1.414 1.151"/>
    </g>
    <g fill-rule="nonzero" transform="translate(.602 1.706)">
      <polygon fill="#FF8D00" points=".249 4.794 0 5.812 .521 4.409 .748 3.408"/>
      <polygon fill="#FF4E00" points=".748 3.408 .522 4.41 1.187 3.201 1.386 2.217"/>
      <polygon fill="#FF1600" points="1.386 2.217 1.187 3.201 1.981 2.221 2.147 1.255"/>
      <polygon fill="#D10000" points="2.147 1.255 1.981 2.221 2.884 1.499 3.013 .551"/>
      <polygon fill="#A40000" points="3.013 .551 2.884 1.499 3.871 1.058 3.96 .128"/>
      <polygon fill="#890000" points="3.96 .129 3.872 1.059 4.917 .913 4.963 .001"/>
      <polygon fill="#FF6000" points="10.599 5.13 10.784 5.968 11.437 7.579 11.228 6.745"/>
      <polygon fill="maroon" points="4.963 0 4.917 .912 5.993 1.067 5.995 .172"/>
      <polygon fill="#FF2900" points="9.843 3.673 9.997 4.519 10.784 5.968 10.599 5.13"/>
      <polygon fill="maroon" points="5.996 .172 5.993 1.067 7.068 1.522 7.028 .642"/>
      <polygon fill="#DF0000" points="8.979 2.417 9.099 3.272 9.997 4.519 9.843 3.673"/>
      <polygon fill="#920000" points="7.028 .642 7.068 1.522 8.113 2.263 8.032 1.397"/>
      <polygon fill="#B20000" points="8.032 1.397 8.113 2.264 9.099 3.272 8.979 2.417"/>
    </g>
    <g fill-rule="nonzero" transform="translate(15.886 2.006)">
      <polygon fill="#23FFD4" points="1.515 11.403 .007 11.391 .033 12.525 1.572 12.464"/>
      <polygon fill="#53FFA4" points="1.494 10.263 0 10.166 .008 11.391 1.516 11.404"/>
      <polygon fill="#80FF77" points="1.508 9.07 .011 8.881 0 10.166 1.494 10.262"/>
      <polygon fill="#ADFF49" points="1.559 7.858 .041 7.57 .011 8.881 1.509 9.07"/>
      <polygon fill="#DBFF1C" points="1.644 6.659 .088 6.27 .041 7.571 1.559 7.858"/>
      <polygon fill="#FFE200" points="1.762 5.504 .152 5.013 .088 6.27 1.644 6.659"/>
      <polygon fill="#FF3800" points="3.159 .978 .88 0 .765 .154 2.936 1.101"/>
      <polygon fill="#FFB600" points="1.91 4.425 .231 3.836 .152 5.013 1.762 5.504"/>
      <polygon fill="#FF3800" points="2.935 1.101 .765 .154 .649 .521 2.71 1.421"/>
      <polygon fill="#FF9100" points="2.084 3.453 .323 2.771 .231 3.836 1.91 4.425"/>
      <polygon fill="#FF4300" points="2.711 1.421 .65 .52 .535 1.09 2.49 1.93"/>
      <polygon fill="#FF6F00" points="2.279 2.613 .425 1.847 .323 2.77 2.083 3.452"/>
      <polygon fill="#F50" points="2.49 1.93 .535 1.09 .426 1.847 2.279 2.613"/>
    </g>
    <g fill-rule="nonzero" transform="translate(17.38 2.984)">
      <polygon fill="#2CFFCA" points="1.556 10.552 .022 10.426 .078 11.487 1.637 11.539"/>
      <polygon fill="#56FFA0" points="1.523 9.495 0 9.285 .022 10.426 1.556 10.552"/>
      <polygon fill="#80FF77" points="1.54 8.396 .014 8.093 0 9.285 1.523 9.495"/>
      <polygon fill="#AAFF4D" points="1.607 7.282 .065 6.881 .015 8.093 1.541 8.395"/>
      <polygon fill="#D4FF23" points="1.723 6.184 .151 5.681 .065 6.881 1.607 7.282"/>
      <polygon fill="#FBF100" points="1.883 5.131 .269 4.526 .151 5.681 1.723 6.184"/>
      <polygon fill="#F50" points="4.109 1.19 1.881 .076 1.666 0 3.81 1.099"/>
      <polygon fill="#FFC400" points="2.085 4.152 .416 3.448 .268 4.526 1.883 5.131"/>
      <polygon fill="#FF4E00" points="3.81 1.099 1.666 0 1.442 .124 3.5 1.19"/>
      <polygon fill="#FFA300" points="2.324 3.273 .59 2.475 .416 3.448 2.085 4.152"/>
      <polygon fill="#FF5200" points="3.5 1.191 1.442 .124 1.217 .444 3.188 1.463"/>
      <polygon fill="#FF8200" points="2.592 2.519 .785 1.636 .59 2.475 2.324 3.273"/>
      <polygon fill="#FF5900" points="3.188 1.463 1.217 .444 .996 .953 2.883 1.91"/>
      <polygon fill="#FF6C00" points="2.882 1.91 .996 .953 .785 1.636 2.592 2.519"/>
    </g>
    <g fill-rule="nonzero" transform="translate(18.903 4.082)">
      <polygon fill="#33FFC4" points="1.464 9.678 .033 9.453 .114 10.44 1.563 10.592"/>
      <polygon fill="#5AFF9D" points="1.423 8.704 0 8.397 .033 9.454 1.464 9.678"/>
      <polygon fill="#80FF77" points="1.442 7.695 .017 7.297 0 8.397 1.423 8.704"/>
      <polygon fill="#A7FF50" points="1.521 6.677 .084 6.183 .017 7.297 1.442 7.694"/>
      <polygon fill="#CEFF29" points="1.658 5.679 .2 5.086 .084 6.184 1.521 6.677"/>
      <polygon fill="#F1FC06" points="1.85 4.725 .36 4.032 .199 5.085 1.658 5.678"/>
      <polygon fill="gold" points="2.091 3.842 .562 3.053 .36 4.032 1.85 4.725"/>
      <polygon fill="#FF6F00" points="4.525 1.283 2.586 .091 2.287 0 4.164 1.176"/>
      <polygon fill="#FFB600" points="2.377 3.055 .801 2.174 .563 3.053 2.092 3.843"/>
      <polygon fill="#FF6800" points="4.163 1.177 2.286 0 1.977 .092 3.79 1.237"/>
      <polygon fill="#FF9800" points="2.699 2.384 1.069 1.42 .801 2.174 2.377 3.055"/>
      <polygon fill="#FF6C00" points="3.79 1.237 1.977 .092 1.666 .365 3.415 1.463"/>
      <polygon fill="#FF8200" points="3.047 1.849 1.36 .812 1.069 1.42 2.698 2.385"/>
      <polygon fill="#FF7300" points="3.415 1.463 1.665 .365 1.36 .812 3.048 1.849"/>
    </g>
    <g fill-rule="nonzero" transform="translate(20.325 5.26)">
      <polygon fill="#39FFBE" points="1.24 8.806 .041 8.501 .141 9.415 1.352 9.651"/>
      <polygon fill="#5AFF9D" points="1.193 7.91 0 7.526 .041 8.501 1.24 8.806"/>
      <polygon fill="#80FF77" points="1.213 6.988 .019 6.517 0 7.526 1.193 7.91"/>
      <polygon fill="#A4FF53" points="1.3 6.062 .098 5.501 .019 6.518 1.213 6.988"/>
      <polygon fill="#C7FF30" points="1.45 5.158 .235 4.502 .098 5.501 1.299 6.062"/>
      <polygon fill="#E7FF0F" points="1.662 4.299 .427 3.548 .235 4.502 1.451 5.158"/>
      <polygon fill="#FFE600" points="1.929 3.508 .669 2.666 .427 3.548 1.662 4.299"/>
      <polygon fill="#FFC400" points="2.245 2.808 .954 1.878 .668 2.666 1.929 3.508"/>
      <polygon fill="#FF8600" points="4.63 1.332 3.102 .107 2.741 0 4.228 1.21"/>
      <polygon fill="#FFAB00" points="2.601 2.216 1.276 1.207 .954 1.878 2.245 2.807"/>
      <polygon fill="#FF8200" points="4.227 1.21 2.74 0 2.367 .06 3.812 1.24"/>
      <polygon fill="#FF9800" points="2.988 1.75 1.625 .672 1.276 1.208 2.601 2.216"/>
      <polygon fill="#FF8200" points="3.812 1.239 2.367 .06 1.992 .286 3.395 1.421"/>
      <polygon fill="#FF8900" points="3.395 1.421 1.992 .286 1.624 .672 2.988 1.75"/>
    </g>
    <g fill-rule="nonzero" transform="translate(21.52 6.469)">
      <polygon fill="#3CFFBA" points=".895 7.962 .046 7.596 .158 8.442 1.013 8.743"/>
      <polygon fill="#5DFF9A" points=".845 7.14 0 6.701 .047 7.597 .895 7.963"/>
      <polygon fill="#80FF77" points=".865 6.298 .02 5.779 0 6.701 .845 7.141"/>
      <polygon fill="#A0FF56" points=".954 5.456 .106 4.852 .02 5.778 .865 6.297"/>
      <polygon fill="#C1FF36" points="1.112 4.639 .257 3.948 .106 4.852 .954 5.456"/>
      <polygon fill="#DEFF19" points="1.333 3.867 .468 3.09 .256 3.949 1.112 4.639"/>
      <polygon fill="#FBF100" points="1.613 3.161 .735 2.299 .468 3.089 1.333 3.867"/>
      <polygon fill="gold" points="1.944 2.541 1.051 1.598 .735 2.299 1.613 3.161"/>
      <polygon fill="#FFA700" points="4.854 1.605 3.814 .393 3.435 .122 4.454 1.335"/>
      <polygon fill="#FFC100" points="2.319 2.022 1.407 1.007 1.051 1.598 1.945 2.54"/>
      <polygon fill="#FF9C00" points="4.455 1.335 3.436 .122 3.034 0 4.03 1.199"/>
      <polygon fill="#FFAE00" points="2.725 1.619 1.794 .54 1.407 1.006 2.319 2.021"/>
      <polygon fill="#FF9800" points="4.03 1.199 3.034 0 2.619 .03 3.593 1.202"/>
      <polygon fill="#FF9F00" points="3.154 1.343 2.202 .212 1.795 .54 2.725 1.619"/>
      <polygon fill="#FF9800" points="3.593 1.202 2.619 .03 2.202 .212 3.154 1.343"/>
    </g>
    <g fill-rule="nonzero" transform="translate(22.364 7.668)">
      <polygon fill="#43FFB4" points=".455 7.171 .051 6.764 .169 7.545 .576 7.894"/>
      <polygon fill="#60FF97" points=".403 6.414 0 5.941 .05 6.763 .455 7.17"/>
      <polygon fill="#7DFF7A" points=".422 5.643 .02 5.099 0 5.941 .403 6.414"/>
      <polygon fill="#9DFF5A" points=".511 4.877 .109 4.258 .02 5.099 .421 5.643"/>
      <polygon fill="#BAFF3C" points=".67 4.138 .267 3.44 .11 4.258 .511 4.877"/>
      <polygon fill="#D4FF23" points=".893 3.443 .488 2.668 .267 3.44 .669 4.138"/>
      <polygon fill="#EEFF09" points="1.175 2.813 .769 1.962 .489 2.668 .893 3.443"/>
      <polygon fill="#FFDE00" points="5.158 2.439 4.695 1.316 4.374 .803 4.832 1.951"/>
      <polygon fill="#FFE600" points="1.51 2.263 1.1 1.341 .769 1.962 1.175 2.813"/>
      <polygon fill="#FC0" points="4.832 1.951 4.375 .803 4.01 .406 4.46 1.567"/>
      <polygon fill="#FFD000" points="1.888 1.809 1.474 .823 1.1 1.341 1.51 2.263"/>
      <polygon fill="#FFB900" points="4.46 1.567 4.01 .406 3.61 .136 4.053 1.297"/>
      <polygon fill="#FFC100" points="2.3 1.462 1.881 .42 1.474 .823 1.888 1.808"/>
      <polygon fill="#FFB200" points="4.053 1.298 3.61 .136 3.185 0 3.622 1.15"/>
      <polygon fill="#FFB200" points="2.733 1.233 2.309 .144 1.88 .42 2.299 1.462"/>
      <polygon fill="#FFAB00" points="3.622 1.15 3.186 0 2.748 .003 3.178 1.128"/>
      <polygon fill="#FFAE00" points="3.178 1.128 2.748 .003 2.309 .144 2.733 1.233"/>
      <polygon fill="#CEFF29" points=".78 4.188 .893 3.443 .67 4.137 .561 4.816"/>
    </g>
    <g fill-rule="nonzero" transform="translate(23.144 8.796)">
      <polygon fill="#50FFA7" points="4.741 6.977 4.901 6.286 5.034 5.539 4.87 6.294"/>
      <polygon fill="#6AFF8D" points="4.87 6.294 5.034 5.54 5.097 4.772 4.93 5.588"/>
      <polygon fill="#87FF70" points="4.931 5.588 5.098 4.772 5.091 4.003 4.922 4.878"/>
      <polygon fill="#A0FF56" points="4.921 4.878 5.09 4.003 5.012 3.254 4.842 4.182"/>
      <polygon fill="#BEFF39" points="4.842 4.181 5.013 3.253 4.865 2.542 4.695 3.517"/>
      <polygon fill="#D4FF23" points="4.695 3.517 4.865 2.542 4.652 1.889 4.482 2.903"/>
      <polygon fill="#E4FF13" points=".277 2.493 .395 1.684 .113 2.315 0 3.06"/>
      <polygon fill="#EBFF0C" points="4.482 2.903 4.652 1.889 4.379 1.31 4.21 2.355"/>
      <polygon fill="#F8F500" points=".606 2.004 .73 1.134 .395 1.684 .277 2.493"/>
      <polygon fill="#FEED00" points="4.21 2.356 4.379 1.311 4.052 .823 3.886 1.889"/>
      <polygon fill="#FFDE00" points=".978 1.605 1.108 .68 .73 1.134 .606 2.004"/>
      <polygon fill="#FFDB00" points="3.886 1.889 4.052 .823 3.68 .439 3.517 1.516"/>
      <polygon fill="#FFD000" points="1.383 1.308 1.519 .334 1.108 .68 .978 1.605"/>
      <polygon fill="#FC0" points="3.517 1.515 3.68 .438 3.273 .169 3.114 1.246"/>
      <polygon fill="#FFC400" points="1.811 1.119 1.954 .105 1.52 .334 1.384 1.308"/>
      <polygon fill="#FFC400" points="3.114 1.246 3.273 .169 2.842 .021 2.688 1.088"/>
      <polygon fill="#FFC100" points="2.25 1.046 2.399 0 1.954 .105 1.811 1.12"/>
      <polygon fill="#FFBD00" points="2.688 1.088 2.842 .022 2.398 0 2.25 1.046"/>
    </g>
    <g fill-rule="nonzero" transform="translate(23.084 9.842)">
      <polygon fill="#00D4FF" points="2.586 8.865 3.314 8.445 3.699 8.108 2.959 8.57"/>
      <polygon fill="#00E4F8" points="2.959 8.57 3.699 8.108 4.049 7.677 3.298 8.185"/>
      <polygon fill="#0FF8E7" points="3.298 8.185 4.05 7.677 4.355 7.161 3.593 7.719"/>
      <polygon fill="#26FFD1" points="3.593 7.719 4.355 7.161 4.608 6.575 3.837 7.184"/>
      <polygon fill="#3CFFBA" points="3.837 7.184 4.607 6.575 4.801 5.932 4.022 6.593"/>
      <polygon fill="#53FFA4" points="4.023 6.593 4.801 5.932 4.93 5.249 4.146 5.962"/>
      <polygon fill="#6DFF8A" points="4.146 5.962 4.93 5.249 4.991 4.543 4.203 5.306"/>
      <polygon fill="#87FF70" points="4.202 5.306 4.99 4.543 4.981 3.833 4.191 4.643"/>
      <polygon fill="#A0FF56" points="4.192 4.643 4.981 3.832 4.902 3.136 4.112 3.989"/>
      <polygon fill="#B7FF40" points="4.112 3.989 4.902 3.136 4.754 2.472 3.967 3.363"/>
      <polygon fill="#CEFF29" points="3.967 3.362 4.754 2.472 4.541 1.858 3.759 2.779"/>
      <polygon fill="#E4FF13" points="3.759 2.779 4.542 1.858 4.27 1.31 3.493 2.255"/>
      <polygon fill="#FEED00" points=".359 1.399 1.038 .56 .666 .959 0 1.752"/>
      <polygon fill="#F4F802" points="3.493 2.255 4.27 1.31 3.945 .844 3.177 1.805"/>
      <polygon fill="#FFDE00" points=".751 1.142 1.443 .263 1.038 .56 .359 1.399"/>
      <polygon fill="#FFE600" points="3.178 1.805 3.946 .844 3.577 .471 2.819 1.439"/>
      <polygon fill="#FFD300" points="1.165 .987 1.871 .074 1.443 .263 .751 1.142"/>
      <polygon fill="#FFDB00" points="2.819 1.439 3.577 .47 3.175 .201 2.428 1.168"/>
      <polygon fill="#FFD000" points="1.589 .939 2.31 0 1.871 .074 1.164 .987"/>
      <polygon fill="#FFD000" points="2.428 1.168 3.175 .201 2.748 .043 2.014 1"/>
      <polygon fill="#FC0" points="2.014 1.001 2.748 .043 2.31 0 1.589 .94"/>
    </g>
    <g fill-rule="nonzero" transform="translate(22.627 10.78)">
      <polygon fill="#00D0FF" points="1.399 8.538 2.644 8.123 3.043 7.926 1.781 8.37"/>
      <polygon fill="#00DCFE" points="1.781 8.37 3.043 7.926 3.416 7.631 2.138 8.108"/>
      <polygon fill="#06ECF1" points="2.138 8.108 3.416 7.631 3.755 7.246 2.461 7.759"/>
      <polygon fill="#19FFDE" points="2.462 7.759 3.755 7.246 4.05 6.78 2.743 7.331"/>
      <polygon fill="#29FFCE" points="2.743 7.331 4.05 6.78 4.294 6.245 2.975 6.836"/>
      <polygon fill="#40FFB7" points="2.976 6.835 4.294 6.244 4.48 5.654 3.152 6.284"/>
      <polygon fill="#56FFA0" points="3.152 6.285 4.48 5.654 4.603 5.023 3.268 5.692"/>
      <polygon fill="#6DFF8A" points="3.268 5.691 4.603 5.023 4.66 4.367 3.32 5.072"/>
      <polygon fill="#87FF70" points="3.32 5.072 4.66 4.367 4.649 3.704 3.307 4.443"/>
      <polygon fill="#9DFF5A" points="3.307 4.443 4.648 3.704 4.569 3.05 3.229 3.82"/>
      <polygon fill="#B4FF43" points="3.229 3.82 4.569 3.05 4.424 2.423 3.088 3.219"/>
      <polygon fill="#CAFF2C" points="3.088 3.219 4.424 2.423 4.216 1.84 2.887 2.657"/>
      <polygon fill="#DEFF19" points="2.886 2.657 4.216 1.84 3.95 1.316 2.63 2.149"/>
      <polygon fill="#EEFF09" points="2.63 2.148 3.95 1.316 3.634 .865 2.326 1.707"/>
      <polygon fill="#FFDE00" points=".396 .84 1.621 .048 1.208 .202 0 .968"/>
      <polygon fill="#FBF100" points="2.325 1.707 3.634 .865 3.276 .5 1.981 1.344"/>
      <polygon fill="#FFDB00" points=".802 .815 2.047 0 1.622 .048 .396 .84"/>
      <polygon fill="#FFE600" points="1.981 1.344 3.276 .499 2.885 .229 1.606 1.07"/>
      <polygon fill="gold" points="1.209 .892 2.471 .061 2.046 0 .802 .815"/>
      <polygon fill="#FFDB00" points="1.606 1.07 2.885 .229 2.471 .061 1.209 .892"/>
    </g>
    <g fill-rule="nonzero" transform="translate(20.984 11.596)">
      <polygon fill="#00D8FF" points="1.356 8.175 3.042 7.723 3.424 7.555 1.719 8.029"/>
      <polygon fill="#00E4F8" points="1.719 8.03 3.424 7.555 3.781 7.293 2.059 7.792"/>
      <polygon fill="#0CF4EB" points="2.058 7.792 3.781 7.293 4.104 6.944 2.365 7.469"/>
      <polygon fill="#1CFFDB" points="2.365 7.469 4.105 6.944 4.386 6.516 2.632 7.067"/>
      <polygon fill="#2CFFCA" points="2.632 7.068 4.386 6.517 4.618 6.021 2.851 6.599"/>
      <polygon fill="#43FFB4" points="2.851 6.598 4.618 6.02 4.795 5.469 3.018 6.073"/>
      <polygon fill="#56FFA0" points="3.017 6.073 4.794 5.47 4.91 4.877 3.125 5.505"/>
      <polygon fill="#6DFF8A" points="3.126 5.505 4.911 4.877 4.963 4.258 3.174 4.908"/>
      <polygon fill="#83FF73" points="3.174 4.907 4.963 4.257 4.95 3.628 3.159 4.298"/>
      <polygon fill="#9AFF5D" points="3.159 4.298 4.95 3.628 4.872 3.005 3.083 3.692"/>
      <polygon fill="#B1FF46" points="3.082 3.692 4.872 3.005 4.73 2.404 2.945 3.105"/>
      <polygon fill="#C4FF33" points="2.945 3.105 4.73 2.404 4.529 1.842 2.752 2.552"/>
      <polygon fill="#D7FF1F" points="2.752 2.552 4.529 1.842 4.273 1.333 2.506 2.049"/>
      <polygon fill="#FFE600" points=".376 .688 2.038 .026 1.642 .153 0 .793"/>
      <polygon fill="#E7FF0F" points="2.507 2.049 4.273 1.334 3.969 .892 2.215 1.609"/>
      <polygon fill="#FFE200" points=".763 .68 2.445 0 2.038 .025 .376 .687"/>
      <polygon fill="#F4F802" points="2.215 1.609 3.968 .892 3.624 .53 1.886 1.243"/>
      <polygon fill="#FFE200" points="1.15 .773 2.852 .077 2.445 0 .762 .68"/>
      <polygon fill="#FEED00" points="1.886 1.243 3.624 .529 3.248 .255 1.528 .962"/>
      <polygon fill="#FFE200" points="1.528 .962 3.249 .255 2.852 .077 1.15 .772"/>
    </g>
    <g fill-rule="nonzero" transform="translate(19.376 12.276)">
      <polygon fill="#00DCFE" points=".955 7.991 2.965 7.495 3.328 7.349 1.298 7.862"/>
      <polygon fill="#02E8F4" points="1.298 7.862 3.328 7.35 3.667 7.112 1.619 7.642"/>
      <polygon fill="#0FF8E7" points="1.618 7.642 3.667 7.112 3.974 6.789 1.908 7.335"/>
      <polygon fill="#1FFFD7" points="1.908 7.335 3.974 6.789 4.24 6.388 2.159 6.948"/>
      <polygon fill="#30FFC7" points="2.16 6.948 4.241 6.387 4.46 5.918 2.366 6.492"/>
      <polygon fill="#43FFB4" points="2.365 6.492 4.459 5.918 4.626 5.392 2.521 5.978"/>
      <polygon fill="#5AFF9D" points="2.521 5.979 4.626 5.393 4.735 4.824 2.622 5.42"/>
      <polygon fill="#6DFF8A" points="2.622 5.42 4.735 4.824 4.782 4.227 2.665 4.83"/>
      <polygon fill="#83FF73" points="2.665 4.831 4.782 4.228 4.768 3.618 2.649 4.226"/>
      <polygon fill="#9AFF5D" points="2.65 4.226 4.768 3.618 4.691 3.012 2.575 3.622"/>
      <polygon fill="#B1FF46" points="2.575 3.622 4.691 3.012 4.554 2.424 2.443 3.034"/>
      <polygon fill="#C4FF33" points="2.443 3.035 4.555 2.425 4.361 1.872 2.257 2.479"/>
      <polygon fill="#D7FF1F" points="2.257 2.479 4.361 1.872 4.115 1.369 2.022 1.97"/>
      <polygon fill="#FFE600" points=".366 .543 2.372 0 1.985 .007 0 .534"/>
      <polygon fill="#E4FF13" points="2.023 1.97 4.115 1.369 3.824 .929 1.745 1.522"/>
      <polygon fill="#FFE600" points=".733 .65 2.758 .092 2.371 0 .365 .543"/>
      <polygon fill="#F1FC06" points="1.745 1.522 3.823 .929 3.494 .563 1.431 1.146"/>
      <polygon fill="#FFE600" points="1.091 .853 3.136 .282 2.758 .093 .732 .65"/>
      <polygon fill="#FEED00" points="1.432 1.146 3.495 .563 3.136 .282 1.091 .853"/>
    </g>
    <g fill-rule="nonzero" transform="translate(17.354 12.802)">
      <polygon fill="#00E4F8" points="1.33 7.759 3.483 7.238 3.15 7.413 .994 7.937"/>
      <polygon fill="#0CF4EB" points="1.639 7.491 3.79 6.973 3.484 7.237 1.331 7.759"/>
      <polygon fill="#19FFDE" points="1.911 7.138 4.061 6.625 3.789 6.973 1.639 7.491"/>
      <polygon fill="#29FFCE" points="2.142 6.71 4.291 6.203 4.061 6.625 1.912 7.138"/>
      <polygon fill="#3CFFBA" points="2.323 6.216 4.472 5.716 4.291 6.203 2.142 6.71"/>
      <polygon fill="#53FFA4" points="2.45 5.67 4.601 5.178 4.472 5.716 2.323 6.216"/>
      <polygon fill="#66FF90" points="2.521 5.086 4.673 4.602 4.601 5.178 2.45 5.67"/>
      <polygon fill="#7DFF7A" points="2.532 4.478 4.687 4.003 4.673 4.602 2.521 5.086"/>
      <polygon fill="#94FF63" points="2.483 3.862 4.641 3.397 4.686 4.003 2.532 4.478"/>
      <polygon fill="#AAFF4D" points="2.375 3.255 4.537 2.799 4.641 3.397 2.483 3.862"/>
      <polygon fill="#BEFF39" points="2.211 2.673 4.378 2.226 4.537 2.799 2.375 3.255"/>
      <polygon fill="#D1FF26" points="1.995 2.131 4.167 1.692 4.378 2.226 2.211 2.673"/>
      <polygon fill="#FFE200" points="0 .411 2.204 0 2.572 .058 .372 .471"/>
      <polygon fill="#E1FF16" points="1.732 1.643 3.91 1.212 4.167 1.692 1.995 2.13"/>
      <polygon fill="#FFE600" points=".372 .471 2.571 .059 2.935 .214 .741 .629"/>
      <polygon fill="#EEFF09" points="1.431 1.223 3.614 .798 3.911 1.212 1.733 1.643"/>
      <polygon fill="#FFEA00" points=".741 .629 2.936 .214 3.286 .463 1.097 .882"/>
      <polygon fill="#FBF100" points="1.097 .882 3.286 .463 3.614 .799 1.43 1.223"/>
    </g>
    <g fill-rule="nonzero" transform="translate(15.093 13.213)">
      <polygon fill="#00E0FB" points="1.417 7.926 3.592 7.348 3.256 7.525 1.07 8.11"/>
      <polygon fill="#09F0EE" points="1.735 7.647 3.899 7.079 3.591 7.348 1.417 7.926"/>
      <polygon fill="#16FFE1" points="2.016 7.281 4.173 6.726 3.9 7.079 1.736 7.647"/>
      <polygon fill="#29FFCE" points="2.252 6.836 4.402 6.298 4.172 6.727 2.016 7.281"/>
      <polygon fill="#3CFFBA" points="2.438 6.323 4.584 5.805 4.402 6.298 2.252 6.836"/>
      <polygon fill="#50FFA7" points="2.567 5.756 4.711 5.259 4.584 5.805 2.438 6.323"/>
      <polygon fill="#66FF90" points="2.637 5.148 4.782 4.675 4.712 5.259 2.567 5.756"/>
      <polygon fill="#7DFF7A" points="2.645 4.516 4.793 4.067 4.782 4.675 2.637 5.148"/>
      <polygon fill="#94FF63" points="2.592 3.875 4.744 3.451 4.793 4.067 2.645 4.516"/>
      <polygon fill="#AAFF4D" points="2.476 3.243 4.636 2.844 4.743 3.451 2.591 3.875"/>
      <polygon fill="#C1FF36" points="2.304 2.637 4.472 2.261 4.636 2.844 2.477 3.243"/>
      <polygon fill="#D4FF23" points="2.077 2.073 4.256 1.719 4.472 2.262 2.304 2.638"/>
      <polygon fill="#FFDE00" points="0 .283 2.261 0 2.633 .059 .386 .345"/>
      <polygon fill="#E4FF13" points="1.802 1.566 3.993 1.232 4.256 1.719 2.077 2.073"/>
      <polygon fill="#FFDE00" points=".386 .345 2.633 .059 3.002 .218 .77 .51"/>
      <polygon fill="#F1FC06" points="1.488 1.128 3.692 .812 3.994 1.232 1.803 1.565"/>
      <polygon fill="#FFE600" points=".77 .51 3.003 .218 3.359 .471 1.14 .774"/>
      <polygon fill="#FEED00" points="1.14 .773 3.358 .471 3.692 .812 1.487 1.128"/>
    </g>
    <g fill-rule="nonzero" transform="translate(12.909 13.496)">
      <polygon fill="#0CF" points="1.173 8.476 3.255 7.827 2.887 7.912 .785 8.565"/>
      <polygon fill="#00D8FF" points="1.539 8.281 3.601 7.643 3.254 7.827 1.173 8.475"/>
      <polygon fill="#02E8F4" points="1.874 7.986 3.92 7.364 3.601 7.643 1.539 8.281"/>
      <polygon fill="#13FCE4" points="2.169 7.598 4.2 6.998 3.919 7.365 1.874 7.986"/>
      <polygon fill="#23FFD4" points="2.417 7.126 4.437 6.554 4.2 6.999 2.169 7.598"/>
      <polygon fill="#39FFBE" points="2.611 6.581 4.622 6.04 4.436 6.553 2.417 7.125"/>
      <polygon fill="#50FFA7" points="2.745 5.979 4.751 5.473 4.622 6.041 2.611 6.581"/>
      <polygon fill="#66FF90" points="2.816 5.334 4.821 4.865 4.751 5.473 2.745 5.979"/>
      <polygon fill="#7DFF7A" points="2.822 4.662 4.83 4.233 4.821 4.865 2.816 5.334"/>
      <polygon fill="#97FF60" points="2.761 3.982 4.775 3.593 4.829 4.233 2.821 4.662"/>
      <polygon fill="#ADFF49" points="2.637 3.31 4.66 2.961 4.775 3.592 2.761 3.981"/>
      <polygon fill="#C4FF33" points="2.45 2.666 4.488 2.355 4.66 2.961 2.637 3.311"/>
      <polygon fill="#D7FF1F" points="2.208 2.066 4.261 1.79 4.488 2.355 2.451 2.666"/>
      <polygon fill="gold" points="0 .162 2.184 0 2.571 .062 .409 .229"/>
      <polygon fill="#EBFF0C" points="1.915 1.527 3.987 1.283 4.261 1.791 2.208 2.067"/>
      <polygon fill="gold" points=".409 .229 2.57 .062 2.954 .227 .816 .404"/>
      <polygon fill="#F8F500" points="1.579 1.062 3.671 .846 3.987 1.283 1.915 1.527"/>
      <polygon fill="#FFDB00" points=".816 .404 2.954 .227 3.324 .491 1.209 .684"/>
      <polygon fill="#FFE600" points="1.21 .684 3.324 .49 3.672 .845 1.579 1.062"/>
    </g>
    <g fill-rule="nonzero" transform="translate(5.06 13.493)">
      <polygon fill="#00A0FF" points="2.377 10.371 3.749 9.614 3.308 9.233 1.893 9.953"/>
      <polygon fill="#00B0FF" points="1.894 9.953 3.309 9.233 2.899 8.748 1.444 9.421"/>
      <polygon fill="#0094FF" points="2.882 10.664 4.21 9.881 3.749 9.614 2.377 10.371"/>
      <polygon fill="#00C4FF" points="1.444 9.421 2.899 8.747 2.531 8.17 1.04 8.788"/>
      <polygon fill="#0094FF" points="3.396 10.825 4.68 10.028 4.21 9.881 2.882 10.664"/>
      <polygon fill="#00E0FB" points="1.039 8.788 2.53 8.17 2.213 7.515 .69 8.07"/>
      <polygon fill="#0094FF" points="3.907 10.85 5.148 10.05 4.68 10.028 3.396 10.826"/>
      <polygon fill="#13FCE4" points=".69 8.07 2.214 7.514 1.955 6.797 .405 7.284"/>
      <polygon fill="#009CFF" points="4.402 10.738 5.6 9.946 5.148 10.05 3.908 10.85"/>
      <polygon fill="#30FFC7" points=".405 7.284 1.956 6.797 1.763 6.036 .192 6.45"/>
      <polygon fill="#00ACFF" points="4.868 10.49 6.026 9.719 5.6 9.946 4.402 10.738"/>
      <polygon fill="#49FFAD" points=".191 6.449 1.763 6.036 1.641 5.25 .055 5.588"/>
      <polygon fill="#6AFF8D" points=".055 5.588 1.641 5.25 1.593 4.459 0 4.721"/>
      <polygon fill="#87FF70" points="0 4.721 1.593 4.459 1.622 3.683 .028 3.87"/>
      <polygon fill="#A7FF50" points=".028 3.87 1.622 3.683 1.726 2.942 .139 3.057"/>
      <polygon fill="#C4FF33" points=".138 3.058 1.725 2.943 1.902 2.257 .329 2.305"/>
      <polygon fill="#DEFF19" points=".33 2.304 1.903 2.256 2.149 1.643 .597 1.631"/>
      <polygon fill="#F8F500" points=".596 1.631 2.149 1.644 2.458 1.12 .933 1.056"/>
      <polygon fill="#FFDB00" points=".933 1.056 2.458 1.119 2.822 .699 1.33 .594"/>
      <polygon fill="#FFC800" points="1.33 .594 2.822 .699 3.233 .394 1.779 .258"/>
      <polygon fill="#FFB900" points="1.779 .258 3.233 .393 3.678 .212 2.266 .058"/>
      <polygon fill="#FFAE00" points="2.266 .058 3.679 .212 4.148 .159 2.78 0"/>
    </g>
    <g fill-rule="nonzero" transform="translate(3.8 13.23)">
      <polygon fill="#008CFF" points="2.621 11.395 3.638 10.635 3.154 10.217 2.09 10.936"/>
      <polygon fill="#009CFF" points="2.09 10.936 3.154 10.217 2.704 9.685 1.596 10.352"/>
      <polygon fill="#0080FF" points="3.175 11.716 4.143 10.927 3.637 10.634 2.621 11.394"/>
      <polygon fill="#00B4FF" points="1.596 10.352 2.704 9.685 2.3 9.052 1.151 9.657"/>
      <polygon fill="#007CFF" points="3.739 11.894 4.657 11.089 4.143 10.927 3.175 11.716"/>
      <polygon fill="#00D0FF" points="1.151 9.657 2.3 9.052 1.951 8.333 .766 8.869"/>
      <polygon fill="#007CFF" points="4.299 11.922 5.168 11.113 4.657 11.089 3.739 11.894"/>
      <polygon fill="#09F0EE" points=".767 8.869 1.951 8.333 1.666 7.547 .452 8.006"/>
      <polygon fill="#08F" points="4.841 11.8 5.662 11.001 5.168 11.113 4.299 11.922"/>
      <polygon fill="#26FFD1" points=".452 8.006 1.666 7.547 1.452 6.713 .215 7.091"/>
      <polygon fill="#0098FF" points="5.351 11.529 6.128 10.753 5.663 11.001 4.841 11.8"/>
      <polygon fill="#46FFB1" points=".215 7.09 1.452 6.713 1.316 5.851 .063 6.145"/>
      <polygon fill="#00ACFF" points="5.817 11.116 6.553 10.376 6.128 10.753 5.352 11.529"/>
      <polygon fill="#66FF90" points=".063 6.145 1.316 5.852 1.261 4.984 0 5.193"/>
      <polygon fill="#8AFF6D" points="0 5.193 1.261 4.984 1.289 4.134 .028 4.258"/>
      <polygon fill="#AAFF4D" points=".028 4.258 1.289 4.133 1.399 3.321 .147 3.365"/>
      <polygon fill="#CAFF2C" points=".147 3.365 1.399 3.321 1.59 2.568 .354 2.537"/>
      <polygon fill="#E7FF0F" points=".354 2.537 1.59 2.568 1.857 1.895 .644 1.797"/>
      <polygon fill="#FFE600" points=".644 1.797 1.857 1.895 2.193 1.319 1.011 1.164"/>
      <polygon fill="#FC0" points="1.011 1.163 2.193 1.319 2.591 .857 1.446 .654"/>
      <polygon fill="#FFB600" points="1.447 .655 2.591 .857 3.04 .522 1.938 .285"/>
      <polygon fill="#FFA300" points="1.937 .285 3.039 .522 3.527 .322 2.472 .065"/>
      <polygon fill="#FF9800" points="2.472 .064 3.527 .321 4.041 .263 3.037 0"/>
      <polygon fill="#FF9400" points="3.037 0 4.041 .263 4.567 .349 3.615 .094"/>
      <polygon fill="#FF9400" points="3.615 .094 4.567 .349 5.092 .577 4.193 .345"/>
    </g>
    <g fill-rule="nonzero" transform="translate(2.866 12.859)">
      <polygon fill="#0074FF" points="2.881 12.497 3.555 11.765 3.024 11.307 2.3 11.994"/>
      <polygon fill="#0084FF" points="2.3 11.994 3.025 11.306 2.531 10.723 1.758 11.355"/>
      <polygon fill="#0068FF" points="3.488 12.851 4.109 12.088 3.555 11.765 2.881 12.497"/>
      <polygon fill="#00A0FF" points="1.758 11.355 2.53 10.722 2.086 10.028 1.27 10.594"/>
      <polygon fill="#0064FF" points="4.106 13.046 4.673 12.265 4.109 12.087 3.488 12.851"/>
      <polygon fill="#00C0FF" points="1.27 10.594 2.086 10.028 1.701 9.24 .848 9.73"/>
      <polygon fill="#0064FF" points="4.719 13.078 5.233 12.293 4.673 12.265 4.106 13.046"/>
      <polygon fill="#00E4F8" points=".848 9.731 1.701 9.24 1.386 8.377 .502 8.786"/>
      <polygon fill="#0070FF" points="5.313 12.945 5.776 12.171 5.234 12.293 4.719 13.078"/>
      <polygon fill="#1FFFD7" points=".502 8.786 1.387 8.377 1.15 7.461 .241 7.783"/>
      <polygon fill="#0080FF" points="5.871 12.65 6.285 11.9 5.775 12.171 5.312 12.945"/>
      <polygon fill="#40FFB7" points=".241 7.783 1.15 7.462 .998 6.516 .072 6.746"/>
      <polygon fill="#0098FF" points="6.38 12.198 6.751 11.487 6.286 11.9 5.871 12.649"/>
      <polygon fill="#66FF90" points=".072 6.746 .998 6.515 .934 5.563 0 5.702"/>
      <polygon fill="#00B4FF" points="6.827 11.602 7.159 10.942 6.751 11.487 6.38 12.198"/>
      <polygon fill="#8AFF6D" points="0 5.702 .934 5.563 .962 4.628 .028 4.677"/>
      <polygon fill="#ADFF49" points=".029 4.677 .962 4.629 1.081 3.736 .156 3.698"/>
      <polygon fill="#D1FF26" points=".156 3.698 1.081 3.736 1.288 2.909 .381 2.79"/>
      <polygon fill="#F4F802" points=".381 2.79 1.288 2.908 1.579 2.168 .698 1.976"/>
      <polygon fill="gold" points=".698 1.976 1.579 2.168 1.946 1.535 1.099 1.28"/>
      <polygon fill="#FFB900" points="1.099 1.28 1.946 1.535 2.381 1.026 1.575 .721"/>
      <polygon fill="#FF9F00" points="1.575 .721 2.381 1.026 2.872 .656 2.113 .314"/>
      <polygon fill="#FF8D00" points="2.112 .314 2.872 .656 3.407 .435 2.699 .071"/>
      <polygon fill="#FF8200" points="2.699 .072 3.407 .436 3.971 .371 3.318 0"/>
      <polygon fill="#FF7A00" points="3.317 0 3.971 .371 4.549 .465 3.952 .103"/>
      <polygon fill="#FF7E00" points="3.952 .103 4.549 .465 5.127 .716 4.587 .378"/>
      <polygon fill="#00C8FF" points="7.159 10.941 7.861 10.249 7.487 10.747 6.751 11.487"/>
    </g>
    <g fill-rule="nonzero" transform="translate(1.564 11.047)">
      <polygon fill="#0028FF" points="3.683 15.974 3.668 15.544 2.98 14.949 2.943 15.334"/>
      <polygon fill="#0040FF" points="2.942 15.334 2.98 14.949 2.339 14.193 2.253 14.52"/>
      <polygon fill="#0018FF" points="4.455 16.425 4.386 15.963 3.668 15.544 3.683 15.974"/>
      <polygon fill="#0060FF" points="2.254 14.521 2.34 14.193 1.762 13.294 1.631 13.553"/>
      <polygon fill="#0010FF" points="5.242 16.676 5.117 16.195 4.386 15.963 4.456 16.425"/>
      <polygon fill="#08F" points="1.631 13.553 1.762 13.294 1.261 12.274 1.092 12.456"/>
      <polygon fill="#0014FF" points="6.022 16.72 5.841 16.236 5.116 16.196 5.241 16.676"/>
      <polygon fill="#00B4FF" points="1.092 12.455 1.26 12.274 .849 11.157 .649 11.253"/>
      <polygon fill="#0020FF" points="6.778 16.554 6.544 16.08 5.842 16.235 6.022 16.719"/>
      <polygon fill="#02E8F4" points=".649 11.253 .849 11.157 .538 9.97 .314 9.976"/>
      <polygon fill="#0038FF" points="7.49 16.181 7.205 15.733 6.543 16.08 6.778 16.553"/>
      <polygon fill="#30FFC7" points=".313 9.976 .538 9.97 .336 8.743 .095 8.655"/>
      <polygon fill="#0054FF" points="8.141 15.611 7.808 15.202 7.205 15.734 7.491 16.182"/>
      <polygon fill="#60FF97" points=".095 8.655 .336 8.743 .249 7.507 0 7.323"/>
      <polygon fill="#007CFF" points="8.713 14.853 8.338 14.498 7.808 15.202 8.141 15.61"/>
      <polygon fill="#8DFF6A" points="0 7.323 .248 7.507 .279 6.292 .032 6.014"/>
      <polygon fill="#00A8FF" points="9.191 13.929 8.781 13.639 8.338 14.499 8.713 14.854"/>
      <polygon fill="#BEFF39" points=".032 6.014 .279 6.292 .427 5.129 .191 4.76"/>
      <polygon fill="#00D8FF" points="9.563 12.857 9.124 12.643 8.781 13.638 9.191 13.928"/>
      <polygon fill="#EBFF0C" points=".191 4.761 .427 5.13 .69 4.051 .474 3.597"/>
      <polygon fill="#23FFD4" points="9.817 11.666 9.359 11.537 9.125 12.643 9.563 12.857"/>
      <polygon fill="#FFD300" points=".474 3.597 .691 4.051 1.064 3.084 .876 2.553"/>
      <polygon fill="#50FFA7" points="9.945 10.384 9.476 10.348 9.359 11.537 9.817 11.665"/>
      <polygon fill="#FFA700" points=".876 2.553 1.064 3.084 1.537 2.255 1.386 1.658"/>
      <polygon fill="#80FF77" points="9.944 9.046 9.474 9.107 9.477 10.348 9.945 10.384"/>
      <polygon fill="#FF8200" points="1.386 1.658 1.538 2.255 2.1 1.588 1.993 .937"/>
      <polygon fill="#B1FF46" points="9.811 7.686 9.349 7.846 9.474 9.107 9.944 9.046"/>
      <polygon fill="#FF6000" points="1.993 .937 2.1 1.588 2.738 1.102 2.68 .411"/>
      <polygon fill="#DEFF19" points="9.549 6.339 9.106 6.598 9.349 7.846 9.811 7.685"/>
      <polygon fill="#FF4A00" points="2.679 .41 2.737 1.102 3.433 .811 3.43 .095"/>
      <polygon fill="#FFE200" points="9.165 5.044 8.748 5.398 9.105 6.598 9.549 6.339"/>
      <polygon fill="#FF3800" points="3.43 .095 3.433 .811 4.168 .725 4.223 0"/>
      <polygon fill="#FFB200" points="8.668 3.835 8.287 4.279 8.749 5.398 9.165 5.044"/>
      <polygon fill="#FF3000" points="4.224 0 4.169 .724 4.924 .845 5.038 .13"/>
      <polygon fill="#FF8D00" points="8.071 2.746 7.734 3.27 8.288 4.279 8.668 3.835"/>
      <polygon fill="#FF3400" points="5.038 .13 4.923 .846 5.678 1.172 5.852 .482"/>
      <polygon fill="#FF6800" points="7.39 1.808 7.102 2.401 7.733 3.271 8.071 2.747"/>
      <polygon fill="#FF3B00" points="5.852 .482 5.678 1.172 6.411 1.696 6.643 1.046"/>
      <polygon fill="#FF4E00" points="6.643 1.046 6.411 1.695 7.102 2.401 7.39 1.808"/>
    </g>
    <g fill-rule="nonzero" transform="translate(1.812 11.772)">
      <polygon fill="#0040FF" points="3.42 14.82 3.56 14.253 2.926 13.704 2.732 14.225"/>
      <polygon fill="#0058FF" points="2.732 14.225 2.925 13.704 2.334 13.006 2.091 13.468"/>
      <polygon fill="#0034FF" points="4.137 15.238 4.222 14.638 3.56 14.252 3.42 14.819"/>
      <polygon fill="#0074FF" points="2.091 13.469 2.335 13.006 1.802 12.177 1.513 12.569"/>
      <polygon fill="#002CFF" points="4.868 15.471 4.896 14.852 4.222 14.639 4.137 15.239"/>
      <polygon fill="#009CFF" points="1.513 12.57 1.802 12.177 1.34 11.235 1.012 11.549"/>
      <polygon fill="#0030FF" points="5.593 15.51 5.564 14.888 4.896 14.852 4.868 15.471"/>
      <polygon fill="#00C4FF" points="1.012 11.549 1.34 11.235 .962 10.205 .601 10.432"/>
      <polygon fill="#003CFF" points="6.295 15.356 6.212 14.744 5.564 14.888 5.593 15.511"/>
      <polygon fill="#0CF4EB" points=".601 10.432 .961 10.205 .675 9.11 .29 9.246"/>
      <polygon fill="#0050FF" points="6.956 15.009 6.821 14.423 6.211 14.744 6.295 15.356"/>
      <polygon fill="#36FFC1" points=".29 9.246 .676 9.11 .49 7.979 .088 8.019"/>
      <polygon fill="#006CFF" points="7.56 14.478 7.377 13.932 6.821 14.423 6.956 15.009"/>
      <polygon fill="#60FF97" points=".088 8.018 .49 7.979 .41 6.839 0 6.782"/>
      <polygon fill="#0090FF" points="8.09 13.774 7.865 13.282 7.377 13.932 7.56 14.477"/>
      <polygon fill="#8DFF6A" points="0 6.782 .41 6.839 .439 5.72 .031 5.567"/>
      <polygon fill="#00B8FF" points="8.533 12.914 8.272 12.488 7.865 13.282 8.09 13.774"/>
      <polygon fill="#B7FF40" points=".03 5.567 .439 5.72 .577 4.65 .179 4.405"/>
      <polygon fill="#02E8F4" points="8.876 11.919 8.588 11.571 8.272 12.489 8.533 12.914"/>
      <polygon fill="#E1FF16" points=".179 4.405 .577 4.65 .821 3.657 .442 3.326"/>
      <polygon fill="#29FFCE" points="9.11 10.813 8.802 10.551 8.588 11.571 8.876 11.919"/>
      <polygon fill="#FFDE00" points=".442 3.326 .821 3.657 1.165 2.768 .815 2.359"/>
      <polygon fill="#53FFA4" points="9.228 9.623 8.91 9.456 8.803 10.551 9.11 10.812"/>
      <polygon fill="#FFB600" points=".815 2.359 1.165 2.768 1.602 2.007 1.289 1.531"/>
      <polygon fill="#80FF77" points="9.225 8.382 8.907 8.313 8.91 9.456 9.228 9.624"/>
      <polygon fill="#FF9400" points="1.289 1.53 1.602 2.006 2.121 1.394 1.852 .863"/>
      <polygon fill="#ADFF49" points="9.1 7.121 8.791 7.153 8.906 8.314 9.225 8.383"/>
      <polygon fill="#F70" points="1.852 .863 2.121 1.394 2.708 .948 2.489 .377"/>
      <polygon fill="#D7FF1F" points="8.857 5.874 8.567 6.005 8.791 7.152 9.101 7.121"/>
      <polygon fill="#FF6000" points="2.489 .377 2.708 .948 3.348 .681 3.185 .087"/>
      <polygon fill="#FEED00" points="8.5 4.673 8.238 4.901 8.567 6.005 8.857 5.873"/>
      <polygon fill="#FF5200" points="3.185 .087 3.348 .681 4.025 .603 3.92 0"/>
      <polygon fill="#FFC400" points="8.039 3.554 7.813 3.872 8.238 4.902 8.5 4.674"/>
      <polygon fill="#FF4A00" points="3.92 0 4.025 .603 4.719 .715 4.675 .121"/>
      <polygon fill="#FF9F00" points="7.485 2.546 7.304 2.945 7.813 3.872 8.039 3.554"/>
      <polygon fill="#FF4A00" points="4.675 .121 4.719 .715 5.413 1.015 5.429 .447"/>
      <polygon fill="#FF7E00" points="6.854 1.677 6.724 2.146 7.304 2.945 7.485 2.546"/>
      <polygon fill="#F50" points="5.429 .448 5.413 1.016 6.087 1.497 6.162 .971"/>
      <polygon fill="#FF6800" points="6.163 .971 6.087 1.497 6.723 2.146 6.854 1.677"/>
    </g>
    <g fill-rule="nonzero" transform="translate(2.222 12.375)">
      <polygon fill="#005CFF" points="3.15 13.65 3.525 12.981 2.943 12.479 2.516 13.101"/>
      <polygon fill="#0070FF" points="2.516 13.101 2.943 12.478 2.401 11.839 1.925 12.403"/>
      <polygon fill="#004CFF" points="3.812 14.036 4.131 13.335 3.524 12.981 3.15 13.65"/>
      <polygon fill="#008CFF" points="1.925 12.404 2.402 11.839 1.913 11.078 1.392 11.574"/>
      <polygon fill="#0048FF" points="4.486 14.25 4.749 13.53 4.131 13.335 3.812 14.036"/>
      <polygon fill="#00ACFF" points="1.391 11.574 1.913 11.079 1.49 10.215 .93 10.633"/>
      <polygon fill="#004CFF" points="5.154 14.285 5.362 13.562 4.749 13.53 4.486 14.25"/>
      <polygon fill="#00D4FF" points=".93 10.633 1.491 10.215 1.144 9.27 .551 9.602"/>
      <polygon fill="#0054FF" points="5.802 14.142 5.956 13.429 5.362 13.563 5.155 14.286"/>
      <polygon fill="#16FFE1" points=".551 9.602 1.144 9.27 .883 8.267 .265 8.508"/>
      <polygon fill="#0068FF" points="6.411 13.82 6.514 13.134 5.955 13.429 5.802 14.141"/>
      <polygon fill="#3CFFBA" points=".266 8.508 .884 8.267 .715 7.231 .08 7.377"/>
      <polygon fill="#0080FF" points="6.967 13.33 7.023 12.683 6.514 13.134 6.411 13.821"/>
      <polygon fill="#63FF94" points=".08 7.377 .715 7.231 .643 6.187 0 6.237"/>
      <polygon fill="#00A0FF" points="7.455 12.68 7.47 12.086 7.023 12.683 6.967 13.33"/>
      <polygon fill="#8DFF6A" points=".001 6.237 .644 6.186 .672 5.161 .03 5.118"/>
      <polygon fill="#00C8FF" points="7.862 11.886 7.844 11.358 7.471 12.086 7.455 12.679"/>
      <polygon fill="#B4FF43" points=".029 5.118 .672 5.161 .799 4.182 .167 4.048"/>
      <polygon fill="#0CF4EB" points="8.178 10.968 8.132 10.516 7.843 11.358 7.862 11.886"/>
      <polygon fill="#DBFF1C" points=".167 4.047 .799 4.182 1.024 3.273 .411 3.054"/>
      <polygon fill="#30FFC7" points="8.393 9.949 8.329 9.583 8.132 10.517 8.178 10.968"/>
      <polygon fill="#FEED00" points=".411 3.054 1.024 3.273 1.341 2.46 .755 2.165"/>
      <polygon fill="#56FFA0" points="8.5 8.854 8.427 8.58 8.329 9.583 8.393 9.949"/>
      <polygon fill="#FFC800" points=".756 2.166 1.341 2.461 1.742 1.765 1.193 1.404"/>
      <polygon fill="#80FF77" points="8.519 7.711 8.424 7.534 8.428 8.58 8.524 8.854"/>
      <polygon fill="#FFA700" points="1.192 1.404 1.742 1.764 2.218 1.205 1.711 .791"/>
      <polygon fill="#A7FF50" points="8.382 6.55 8.318 6.472 8.424 7.534 8.497 7.711"/>
      <polygon fill="#FF8D00" points="1.711 .791 2.218 1.205 2.756 .798 2.298 .345"/>
      <polygon fill="#CEFF29" points="8.157 5.403 8.112 5.423 8.318 6.472 8.382 6.55"/>
      <polygon fill="#F70" points="2.298 .345 2.756 .798 3.342 .556 2.939 .079"/>
      <polygon fill="#F4F802" points="7.828 4.299 7.811 4.414 8.112 5.423 8.157 5.403"/>
      <polygon fill="#FF6C00" points="2.938 .079 3.342 .555 3.961 .484 3.615 0"/>
      <polygon fill="#FFD300" points="7.403 3.269 7.423 3.473 7.812 4.413 7.828 4.298"/>
      <polygon fill="#FF6400" points="3.615 0 3.961 .485 4.596 .588 4.31 .113"/>
      <polygon fill="#FFB200" points="6.894 2.342 6.958 2.626 7.424 3.473 7.404 3.269"/>
      <polygon fill="#FF6400" points="4.309 .112 4.596 .588 5.23 .863 5.003 .413"/>
      <polygon fill="#FF9400" points="6.314 1.543 6.428 1.896 6.958 2.626 6.894 2.342"/>
      <polygon fill="#FF6C00" points="5.003 .413 5.23 .862 5.846 1.302 5.677 .894"/>
      <polygon fill="#FF7E00" points="5.677 .894 5.846 1.302 6.427 1.895 6.313 1.543"/>
    </g>
    <g fill-rule="nonzero" transform="translate(1.404 10.204)">
      <polygon fill="#000CFF" points="3.932 17.079 3.843 16.818 3.103 16.178 3.142 16.396"/>
      <polygon fill="#0028FF" points="3.142 16.396 3.103 16.178 2.413 15.365 2.406 15.528"/>
      <polygon fill="#00F" points="4.756 17.561 4.616 17.269 3.843 16.818 3.932 17.079"/>
      <polygon fill="#004CFF" points="2.406 15.528 2.413 15.365 1.791 14.397 1.742 14.496"/>
      <polygon fill="#00F" points="5.595 17.829 5.401 17.52 4.615 17.269 4.756 17.561"/>
      <polygon fill="#0074FF" points="1.742 14.496 1.791 14.397 1.252 13.299 1.167 13.324"/>
      <polygon fill="#00F" points="6.429 17.875 6.182 17.563 5.401 17.519 5.595 17.828"/>
      <polygon fill="#00A8FF" points="1.167 13.325 1.252 13.299 .809 12.097 .694 12.042"/>
      <polygon fill="#0008FF" points="7.236 17.699 6.938 17.397 6.182 17.563 6.429 17.875"/>
      <polygon fill="#00E0FB" points=".694 12.042 .809 12.097 .474 10.82 .336 10.678"/>
      <polygon fill="#0020FF" points="7.998 17.302 7.651 17.025 6.938 17.397 7.237 17.699"/>
      <polygon fill="#2CFFCA" points=".335 10.678 .473 10.82 .255 9.499 .102 9.267"/>
      <polygon fill="#0040FF" points="8.694 16.694 8.301 16.454 7.651 17.025 7.998 17.303"/>
      <polygon fill="#5DFF9A" points=".102 9.267 .255 9.499 .16 8.167 0 7.844"/>
      <polygon fill="#0068FF" points="9.306 15.886 8.873 15.697 8.301 16.454 8.694 16.694"/>
      <polygon fill="#90FF66" points="0 7.844 .16 8.167 .192 6.858 .033 6.444"/>
      <polygon fill="#0098FF" points="9.818 14.899 9.351 14.772 8.873 15.697 9.306 15.886"/>
      <polygon fill="#C1FF36" points=".033 6.444 .192 6.858 .351 5.605 .203 5.104"/>
      <polygon fill="#0CF" points="10.217 13.754 9.723 13.701 9.352 14.772 9.818 14.898"/>
      <polygon fill="#F4F802" points=".203 5.103 .351 5.604 .634 4.44 .505 3.857"/>
      <polygon fill="#1CFFDB" points="10.49 12.481 9.977 12.509 9.723 13.701 10.217 13.754"/>
      <polygon fill="#FFC400" points=".505 3.857 .634 4.44 1.036 3.396 .934 2.739"/>
      <polygon fill="#4DFFAA" points="10.629 11.111 10.105 11.228 9.977 12.509 10.49 12.481"/>
      <polygon fill="#FF9800" points=".934 2.74 1.036 3.396 1.546 2.501 1.479 1.78"/>
      <polygon fill="#80FF77" points="10.629 9.679 10.104 9.889 10.105 11.228 10.629 11.111"/>
      <polygon fill="#FF6F00" points="1.479 1.78 1.546 2.501 2.152 1.78 2.127 1.007"/>
      <polygon fill="#B4FF43" points="10.489 8.223 9.971 8.529 10.104 9.889 10.629 9.679"/>
      <polygon fill="#FF4A00" points="2.127 1.007 2.153 1.78 2.84 1.254 2.863 .442"/>
      <polygon fill="#E4FF13" points="10.21 6.783 9.709 7.183 9.971 8.529 10.488 8.224"/>
      <polygon fill="#FF3000" points="2.863 .442 2.84 1.254 3.59 .938 3.665 .103"/>
      <polygon fill="#FFD300" points="9.801 5.397 9.325 5.888 9.709 7.183 10.21 6.783"/>
      <polygon fill="#F20" points="3.665 .103 3.59 .939 4.383 .844 4.514 0"/>
      <polygon fill="#FFA300" points="9.27 4.102 8.828 4.679 9.325 5.887 9.801 5.396"/>
      <polygon fill="#FF1A00" points="4.514 0 4.383 .844 5.198 .974 5.386 .137"/>
      <polygon fill="#FF7A00" points="8.631 2.937 8.231 3.59 8.828 4.679 9.269 4.102"/>
      <polygon fill="#FF1A00" points="5.386 .138 5.198 .974 6.013 1.326 6.258 .513"/>
      <polygon fill="#F50" points="7.903 1.932 7.55 2.651 8.231 3.59 8.631 2.936"/>
      <polygon fill="#FF2500" points="6.258 .513 6.013 1.325 6.804 1.89 7.104 1.117"/>
      <polygon fill="#FF3800" points="7.104 1.116 6.804 1.89 7.55 2.652 7.903 1.932"/>
    </g>
    <g transform="translate(9 9)">
      <circle cx="15.75" cy="16" r="6.5" fill="#FFF" stroke="#FFF"/>
      <circle cx="6.25" cy="16" r="6.5" fill="#FFF" stroke="#FFF"/>
      <circle cx="11" cy="6.35" r="6.5" fill="#FFF" stroke="#FFF"/>
      <g transform="translate(9.75 10)">
        <path fill="#2775CA" d="M12,6 C12,5.21472 11.84376,4.42944 11.54328,3.70392 C11.2428,2.9784 10.79796,2.31264 10.2426,1.7574 C9.68736,1.20204 9.0216,0.7572 8.29608,0.45672 C7.57056,0.15624 6.78528,0 6,0 C5.21472,0 4.42944,0.15624 3.70392,0.45672 C2.9784,0.7572 2.31264,1.20204 1.7574,1.7574 C1.20204,2.31264 0.7572,2.9784 0.45672,3.70392 C0.15624,4.42944 0,5.21472 0,6 C0,6.78528 0.15624,7.57056 0.45672,8.29608 C0.7572,9.0216 1.20204,9.68736 1.7574,10.2426 C2.31264,10.79796 2.9784,11.2428 3.70392,11.54328 C4.42944,11.84376 5.21472,12 6,12 C6.78528,12 7.57056,11.84376 8.29608,11.54328 C9.0216,11.2428 9.68736,10.79796 10.2426,10.2426 C10.79796,9.68736 11.2428,9.0216 11.54328,8.29608 C11.84376,7.57056 12,6.78528 12,6 Z"/>
        <path fill="#FFF" d="M4.90128,10.1564911 C4.90128,10.303105 4.79928,10.3519366 4.65132,10.3519366 C2.79936,9.75918416 1.5,8.07538218 1.5,6.09514455 C1.5,4.11490693 2.79936,2.43110495 4.65132,1.83835248 C4.79976,1.79082772 4.90128,1.88718416 4.90128,2.03712475 C4.90128,2.15213465 4.90128,2.26726337 4.90128,2.38227327 C4.90128,2.48326337 4.84872,2.58092673 4.74996,2.62975842 C3.29928,3.17367921 2.29932,4.51233267 2.29932,6.09514455 C2.29932,7.68128317 3.34872,9.06544158 4.74996,9.56053069 C4.84872,9.60936238 4.90128,9.71035248 4.90128,9.80801584 C4.90128,9.92421386 4.90128,10.0404119 4.90128,10.1564911 Z"/>
        <path fill="#FFF" d="M6.40128,8.91894653 C6.40128,9.0166099 6.29928,9.11427327 6.20064,9.11427327 C6.06684,9.11427327 5.93316,9.11427327 5.79936,9.11427327 C5.70072,9.11427327 5.59872,9.0166099 5.59872,8.91894653 C5.59872,8.72029307 5.59872,8.52152079 5.59872,8.32286733 C4.79928,8.22520396 4.40136,7.77894653 4.25004,7.13415446 C4.25004,7.03637228 4.29936,6.93870891 4.40136,6.93870891 C4.5504,6.93870891 4.69956,6.93870891 4.84872,6.93870891 C4.95072,6.93870891 5.00004,6.98754059 5.04936,7.08520396 C5.15136,7.43379802 5.34864,7.73011485 6,7.73011485 C6.50004,7.73011485 6.84864,7.4826297 6.84864,7.08520396 C6.84864,6.69122376 6.65136,6.54140198 5.95068,6.4436198 C4.9008,6.29724356 4.40136,5.99748119 4.40136,5.15391683 C4.40136,4.51233267 4.90128,4.01724356 5.59872,3.91625347 C5.59872,3.71866931 5.59872,3.52108515 5.59872,3.32350099 C5.59872,3.22583762 5.70072,3.12484752 5.79936,3.12484752 C5.93316,3.12484752 6.06684,3.12484752 6.20064,3.12484752 C6.29928,3.12484752 6.40128,3.22583762 6.40128,3.32350099 C6.40128,3.52108515 6.40128,3.71866931 6.40128,3.91625347 C6.99996,4.01724356 7.40136,4.36251089 7.5,4.90643168 C7.5,5.00742178 7.45068,5.10508515 7.34868,5.10508515 C7.21596,5.10508515 7.08336,5.10508515 6.95064,5.10508515 C6.84864,5.10508515 6.79932,5.05625347 6.75,4.95847129 C6.65136,4.60999604 6.40128,4.46350099 5.95068,4.46350099 C5.45064,4.46350099 5.20068,4.71098614 5.20068,5.05625347 C5.20068,5.40140198 5.34864,5.60005545 6.09864,5.70104554 C7.152,5.84290693 7.65132,6.14397624 7.65132,6.98754059 C7.65132,7.62912475 7.15128,8.17637228 6.40128,8.32286733 L6.40128,8.91894653 Z"/>
        <path fill="#FFF" d="M7.34868,10.3519366 C7.20072,10.404095 7.09872,10.303105 7.09872,10.1564911 C7.09872,10.0404119 7.09872,9.92421386 7.09872,9.80801584 C7.09872,9.71035248 7.15128,9.60936238 7.25004,9.56053069 C8.70072,9.0166099 9.70068,7.68128317 9.70068,6.09514455 C9.70068,4.51233267 8.65128,3.12484752 7.25004,2.62975842 C7.15128,2.58092673 7.09872,2.48326337 7.09872,2.38227327 C7.09872,2.26726337 7.09872,2.15213465 7.09872,2.03712475 C7.09872,1.88718416 7.20072,1.83835248 7.34868,1.83835248 C9.15132,2.43110495 10.5,4.11490693 10.5,6.09514455 C10.5,8.07538218 9.20064,9.75918416 7.34868,10.3519366 Z"/>
      </g>
      <g transform="translate(.25 10)">
        <path fill="#54AE94" d="M12,6 C12,5.21472 11.84376,4.42944 11.54328,3.70392 C11.2428,2.9784 10.79796,2.31264 10.2426,1.7574 C9.68736,1.20204 9.0216,0.7572 8.29608,0.45672 C7.57056,0.15624 6.78528,0 6,0 C5.21472,0 4.42944,0.15624 3.70392,0.45672 C2.9784,0.7572 2.31264,1.20204 1.7574,1.7574 C1.20204,2.31264 0.7572,2.9784 0.45672,3.70392 C0.15624,4.42944 0,5.21472 0,6 C0,6.78528 0.15624,7.57056 0.45672,8.29608 C0.7572,9.0216 1.20204,9.68736 1.7574,10.2426 C2.31264,10.79796 2.9784,11.2428 3.70392,11.54328 C4.42944,11.84376 5.21472,12 6,12 C6.78528,12 7.57056,11.84376 8.29608,11.54328 C9.0216,11.2428 9.68736,10.79796 10.2426,10.2426 C10.79796,9.68736 11.2428,9.0216 11.54328,8.29608 C11.84376,7.57056 12,6.78528 12,6 Z"/>
        <path fill="#FFF" d="M8.91762381,3 L8.91762381,4.3380644 L6.88486997,4.3380644 L6.88486997,5.09228265 C7.72263847,5.1304186 8.4512939,5.23018605 8.98120339,5.37245796 C9.24627765,5.44353488 9.46151603,5.52429338 9.62046498,5.62051878 C9.69993945,5.66857245 9.76602875,5.72052236 9.81610364,5.78250805 C9.86617853,5.84461181 9.9,5.92052952 9.9,6.00164222 C9.9,6.08275492 9.86617853,6.15867263 9.81610364,6.22077639 C9.76602875,6.28276208 9.69993945,6.33471199 9.62046498,6.38276565 C9.46151603,6.47899106 9.24627765,6.55974955 8.9813229,6.63082648 C8.4512939,6.77309839 7.72263847,6.87286583 6.89108452,6.91076565 L6.89108452,6.91076565 L6.88534801,6.91100179 L6.88534801,9.6 L5.41465199,9.6 L5.41465199,6.91100179 C4.57736153,6.87286583 3.8487061,6.77309839 3.3186771,6.63082648 C3.05372235,6.55974955 2.83848397,6.47899106 2.67953502,6.38276565 C2.60006055,6.33471199 2.53397125,6.28276208 2.48389636,6.22077639 C2.43382147,6.15867263 2.4,6.08275492 2.4,6.00164222 C2.4,5.92052952 2.43382147,5.84461181 2.48389636,5.78250805 C2.53397125,5.72052236 2.60006055,5.66857245 2.67953502,5.62051878 C2.83848397,5.52429338 3.05372235,5.44353488 3.31879661,5.37245796 C3.8487061,5.23018605 4.57736153,5.1304186 5.40891548,5.09251878 L5.40891548,5.09251878 L5.41513003,5.09228265 L5.41513003,4.3380644 L3.38237619,4.3380644 L3.38237619,3 L8.91762381,3 Z M6.88558704,5.38768873 L6.88558704,6.14084436 L6.87112627,6.14214311 C6.85236312,6.14379606 6.78579578,6.14946333 6.66580725,6.15454025 C6.60581299,6.15701968 6.53243355,6.15949911 6.4451909,6.16127013 C6.40156957,6.1620966 6.35448244,6.16280501 6.30369048,6.16327728 L6.30369048,6.16327728 L5.99630952,6.16327728 C5.94551756,6.16280501 5.89843043,6.1620966 5.8548091,6.16127013 C5.76756645,6.15949911 5.69418701,6.15701968 5.63419275,6.15454025 C5.51420422,6.14946333 5.44763688,6.14379606 5.42887373,6.14214311 L5.42887373,6.14214311 L5.41441296,6.14084436 L5.41441296,5.38768873 C4.69065747,5.41968515 4.05892504,5.49843649 3.61267289,5.60481574 C3.3893078,5.65818247 3.21207375,5.71898748 3.09662662,5.78073703 C3.03890305,5.81155277 2.99695487,5.84284079 2.97233571,5.86976029 C2.94771655,5.89679785 2.94090446,5.91627907 2.94090446,5.93292665 C2.94090446,5.94957424 2.94771655,5.96905546 2.97233571,5.99609302 C2.99695487,6.02301252 3.03890305,6.05430054 3.09674613,6.08511628 C3.21219326,6.14686583 3.38942731,6.20767084 3.61291191,6.26103757 C4.05976162,6.36765295 4.69268915,6.44652236 5.41752024,6.47840072 L5.41752024,6.47840072 L6.15,6.49457603 L6.88247976,6.47840072 C7.60731085,6.44652236 8.24023838,6.36765295 8.68708809,6.26103757 C8.91057269,6.20767084 9.08780674,6.14686583 9.20325387,6.08511628 C9.26109695,6.05430054 9.30304513,6.02301252 9.32766429,5.99609302 C9.35228345,5.96905546 9.35909554,5.94957424 9.35909554,5.93292665 C9.35909554,5.91627907 9.35228345,5.89679785 9.32766429,5.86976029 C9.30304513,5.84284079 9.26109695,5.81155277 9.20337338,5.78073703 C9.08792625,5.71898748 8.9106922,5.65818247 8.68732711,5.60481574 C8.24107496,5.49843649 7.60934253,5.41968515 6.88558704,5.38768873 L6.88558704,5.38768873 Z"/>
      </g>
      <g transform="translate(5 .35)">
        <path fill="#F4B731" d="M12,6 C12,5.21472 11.84376,4.42944 11.54328,3.70392 C11.2428,2.9784 10.79796,2.31264 10.2426,1.7574 C9.68736,1.20204 9.0216,0.7572 8.29608,0.45672 C7.57056,0.15624 6.78528,0 6,0 C5.21472,0 4.42944,0.15624 3.70392,0.45672 C2.9784,0.7572 2.31264,1.20204 1.7574,1.7574 C1.20204,2.31264 0.7572,2.9784 0.45672,3.70392 C0.15624,4.42944 0,5.21472 0,6 C0,6.78528 0.15624,7.57056 0.45672,8.29608 C0.7572,9.0216 1.20204,9.68736 1.7574,10.2426 C2.31264,10.79796 2.9784,11.2428 3.70392,11.54328 C4.42944,11.84376 5.21472,12 6,12 C6.78528,12 7.57056,11.84376 8.29608,11.54328 C9.0216,11.2428 9.68736,10.79796 10.2426,10.2426 C10.79796,9.68736 11.2428,9.0216 11.54328,8.29608 C11.84376,7.57056 12,6.78528 12,6 Z"/>
        <path fill="#FFF" d="M6.03,2.74239208 C6.23436,2.74239208 6.43692,2.7725703 6.63744,2.80928317 C7.05096,2.88484752 7.44804,3.03122376 7.81128,3.23985743 C8.05296,3.37874851 8.27376,3.54971881 8.47116,3.74492673 C8.62248,3.89474851 8.75352,4.06274851 8.87232,4.2385901 C8.99208,4.41585743 9.08832,4.6076198 9.16524,4.80674851 C9.17484,4.85866931 9.225,4.8936 9.27732,4.88480792 L9.9486,4.88480792 L9.9486,4.88480792 C10.03476,4.88480792 10.03476,4.88480792 10.0386,4.9665505 C10.04796,5.16936238 10.04796,5.37229307 10.0386,5.5755802 C10.03584,5.63486733 10.01604,5.64995644 9.9558,5.64995644 L9.43836,5.64995644 L9.43836,5.64995644 C9.38592,5.64995644 9.3708,5.64995644 9.37452,5.71672871 C9.38676,5.94342178 9.39504,6.16987723 9.37452,6.39609505 C9.37452,6.45918416 9.37452,6.4665505 9.44604,6.4665505 L10.03824,6.4665505 L10.03824,6.4665505 C10.0644,6.49993663 10.03824,6.53332277 10.03824,6.56706535 C10.04208,6.61019406 10.04208,6.65367921 10.03824,6.69680792 L10.03824,7.14615446 L10.03824,7.14615446 C10.03824,7.20924356 10.01952,7.22801584 9.96312,7.22801584 L9.2544,7.22801584 C9.20508,7.21851089 9.15696,7.24987723 9.14556,7.2985901 C8.97684,7.73296634 8.70684,8.12243168 8.358,8.43478812 C8.2308,8.54872871 8.09664,8.65530297 7.95672,8.75391683 C7.8066,8.83934257 7.66056,8.92845149 7.50672,8.99902574 C7.22496,9.12841188 6.9264,9.21823366 6.6216,9.27728317 C6.333,9.33312475 6.03864,9.35189703 5.74404,9.34785743 C4.87668,9.33597624 4.00908,9.33597624 3.14148,9.34785743 L3.14148,9.34405545 L3.14256,9.34334257 L3.14256,7.29027327 L3.14256,7.29027327 C3.14256,7.24179802 3.14256,7.23466931 3.08268,7.23466931 L2.26884,7.23466931 L2.26884,7.23466931 C2.22372,7.23466931 2.20512,7.23466931 2.20512,7.17526337 L2.20512,6.46987723 L2.20512,6.46987723 L3.07512,6.46987723 L3.07512,6.46987723 C3.1236,6.46987723 3.14256,6.46987723 3.14256,6.40666931 L3.14256,5.7086495 L3.14256,5.7086495 C3.14256,5.66409505 3.14256,5.65316436 3.08268,5.65316436 L2.26884,5.65316436 L2.26884,5.65316436 C2.22372,5.65316436 2.20512,5.65316436 2.20512,5.59375842 L2.20512,4.94041188 C2.20512,4.89942178 2.20512,4.8886099 2.26512,4.8886099 L3.07128,4.8886099 L3.07128,4.8886099 C3.12744,4.8886099 3.14256,4.8886099 3.14256,4.81803564 L3.14256,2.81676832 L3.14256,2.81676832 C3.14256,2.75736238 3.14256,2.74239208 3.21768,2.74239208 L6.03,2.74239208 L6.03,2.74239208 Z M8.12976,7.23823366 L3.97116,7.23823366 L3.97116,7.23823366 C3.91512,7.23823366 3.89628,7.23823366 3.89628,7.31237228 L3.89628,8.60100594 C3.89628,8.66029307 3.89628,8.67538218 3.97116,8.67538218 L5.89116,8.67538218 L5.89116,8.67538218 C5.98296,8.68215446 6.07476,8.67573861 6.16464,8.65684752 C6.4434,8.63712475 6.71748,8.57724356 6.97884,8.47851089 C7.0728,8.44298614 7.16568,8.40342178 7.25232,8.35233267 L7.27848,8.35233267 C7.7286,8.1206495 8.09424,7.75637228 8.32476,7.30952079 C8.32608,7.30666931 8.35104,7.25332277 8.32152,7.2385901 L8.32152,7.23823366 C8.2578,7.23122376 8.19348,7.23122376 8.12976,7.23823366 Z M8.50488,5.64912475 L3.96732,5.64912475 L3.96732,5.64912475 C3.91128,5.64912475 3.89628,5.66754059 3.89628,5.71969901 L3.89628,6.38053069 C3.89628,6.46583762 3.89628,6.46583762 3.98604,6.46583762 L8.50104,6.46583762 L8.50104,6.46583762 C8.54976,6.46583762 8.57268,6.46583762 8.57616,6.40274851 C8.589,6.1726099 8.59476,5.94199604 8.57616,5.71209505 C8.57616,5.66754059 8.55384,5.64912475 8.50488,5.64912475 Z M5.97324,3.44730297 C5.30208,3.45300594 4.63092,3.45300594 3.95964,3.44730297 C3.90336,3.44682772 3.89592,3.46952079 3.89592,3.51787723 L3.89592,4.83585743 L3.89592,4.83585743 C3.89592,4.89146139 3.89592,4.90643168 3.9672,4.90643168 L8.29452,4.90643168 L8.29452,4.90643168 C8.29632,4.90607525 8.33196,4.89906535 8.33964,4.87672871 L8.32116,4.87672871 C8.328,4.85985743 8.328,4.8415604 8.32152,4.82492673 C8.28348,4.74282772 8.23836,4.66453069 8.18604,4.59098614 C8.1072,4.46528317 8.0142,4.3495604 7.90848,4.2456 C7.85856,4.18274851 7.80072,4.12643168 7.73592,4.0785505 C7.41132,3.80504554 7.0254,3.61150099 6.6108,3.51419406 C6.402,3.46524356 6.1878,3.44552079 5.97324,3.44730297 Z"/>
      </g>
    </g>
  </g>
</svg>
