<svg width="32" height="32" viewBox="0 0 32 32" fill="none" xmlns="http://www.w3.org/2000/svg">
<path fill-rule="evenodd" clip-rule="evenodd" d="M32 15.9999C32 13.9059 31.5834 11.8118 30.7821 9.87706C29.9805 7.94234 28.7942 6.16698 27.3136 4.68634C25.833 3.20538 24.0576 2.01946 22.1229 1.21786C20.1882 0.416579 18.0941 -6.10352e-05 16 -6.10352e-05C13.9059 -6.10352e-05 11.8115 0.416579 9.8768 1.21786C7.94208 2.01946 6.16704 3.20538 4.68608 4.68634C3.20544 6.16698 2.0192 7.94234 1.21792 9.87706C0.41632 11.8118 0 13.9059 0 15.9999C0 18.094 0.41632 20.1881 1.21792 22.1228C2.0192 24.0575 3.20544 25.8329 4.68608 27.3139C6.16704 28.7945 7.94208 29.9807 9.8768 30.782C11.8115 31.5833 13.9059 31.9999 16 31.9999C18.0941 31.9999 20.1882 31.5833 22.1229 30.782C24.0576 29.9807 25.833 28.7945 27.3136 27.3139C28.7942 25.8329 29.9805 24.0575 30.7821 22.1228C31.5834 20.1881 32 18.094 32 15.9999Z" fill="white"/>
<path fill-rule="evenodd" clip-rule="evenodd" d="M11.8547 3.38361C13.3453 2.89369 14.9382 2.66969 16.5162 2.73017C18.0944 2.79065 19.6579 3.13593 21.113 3.74393C22.5683 4.35193 23.9152 5.22297 25.0675 6.29753C26.5917 7.71929 27.775 9.49753 28.4848 11.4867C29.1949 13.4761 29.4314 15.6764 29.1574 17.7711C28.8838 19.8659 28.0998 21.8553 26.9139 23.566C25.728 25.2767 24.1398 26.7084 22.2746 27.7004C20.4093 28.6921 18.2662 29.2438 16.1539 29.2758C14.0416 29.3078 11.9597 28.8204 10.095 27.895C8.23073 26.9695 6.58337 25.6063 5.33249 23.9036C4.08161 22.2009 3.22721 20.1587 2.88801 18.0748C2.54881 15.9907 2.72481 13.8646 3.37473 11.8812C3.86593 10.3817 4.62817 8.96409 5.6048 7.73561H4.12033V5.28185H9.93696V10.7135H7.48321V9.22937C6.68321 10.2355 6.05857 11.3967 5.65633 12.6255C5.12417 14.2511 4.98081 15.9951 5.25633 17.6969C5.59873 19.8137 6.58881 21.8649 8.06657 23.4457C9.83425 25.3363 12.2995 26.5542 14.8659 26.8207C17.432 27.0873 20.0992 26.4028 22.2173 24.9286C24.3354 23.4543 25.905 21.1903 26.5421 18.6899C27.1792 16.1894 26.8838 13.4524 25.735 11.142C24.5862 8.83161 22.5837 6.94841 20.1891 5.95897C17.7946 4.96921 15.0077 4.87385 12.6038 5.66361L11.8547 3.38361Z" fill="url(#paint0_linear)"/>
<path d="M17.1133 22.7333C16.3819 22.7333 15.7055 22.63 15.0838 22.4232C14.4622 22.2043 13.9076 21.8943 13.4201 21.493C12.9447 21.0917 12.5425 20.6113 12.2134 20.0519C11.8965 19.4804 11.671 18.8481 11.5369 18.1549H9.8V16.8233H11.3906C11.3784 16.7382 11.3724 16.647 11.3724 16.5497V15.8566C11.3845 15.7228 11.3906 15.6134 11.3906 15.5282H9.8V14.1967H11.5186C11.6527 13.4792 11.8843 12.8347 12.2134 12.2631C12.5547 11.6916 12.9691 11.2113 13.4566 10.8221C13.9564 10.4208 14.5232 10.1168 15.157 9.91009C15.7908 9.70336 16.4734 9.6 17.2047 9.6C18.0457 9.6 18.7466 9.70944 19.3072 9.92833C19.8679 10.1472 20.3433 10.4208 20.7333 10.7492L19.8192 12.5003C19.4048 12.1841 18.9903 11.9652 18.5759 11.8436C18.1737 11.722 17.7227 11.6612 17.223 11.6612C16.3332 11.6612 15.5897 11.8801 14.9924 12.3179C14.3952 12.7556 14.0112 13.3819 13.8406 14.1967H19.161L18.5211 15.5282H13.6943C13.6943 15.6377 13.6882 15.7471 13.676 15.8566V16.495C13.6882 16.6044 13.6943 16.7139 13.6943 16.8233H18.1554L17.5155 18.1549H13.8406C14.0112 18.9575 14.3891 19.5777 14.9741 20.0155C15.5714 20.4532 16.3088 20.6721 17.1864 20.6721C17.7349 20.6721 18.2103 20.6052 18.6125 20.4715C19.0269 20.3256 19.3804 20.1431 19.6729 19.9243L20.7333 21.5842C20.2945 21.9611 19.7765 22.2469 19.1793 22.4415C18.5942 22.636 17.9055 22.7333 17.1133 22.7333V22.7333Z" fill="black"/>
<defs>
<linearGradient id="paint0_linear" x1="2.04343" y1="13.297" x2="15.2222" y2="29.5764" gradientUnits="userSpaceOnUse">
<stop stop-color="#004CFF"/>
<stop offset="0.252131" stop-color="#00E0FB"/>
<stop offset="0.505709" stop-color="#87FF70"/>
<stop offset="0.755054" stop-color="#F8F500"/>
<stop offset="1" stop-color="#FF1A00"/>
</linearGradient>
</defs>
</svg>
