<svg xmlns="http://www.w3.org/2000/svg" width="32" height="32" viewBox="0 0 32 32">
  <g fill="none" fill-rule="evenodd">
    <path fill="#FFF" d="M32,15.999936 C32,13.905856 31.58336,11.811776 30.78208,9.877056 C29.98048,7.942336 28.79424,6.166976 27.3136,4.686336 C25.83296,3.205376 24.0576,2.019456 22.12288,1.217856 C20.18816,0.416576 18.09408,-6.4e-05 16,-6.4e-05 C13.90592,-6.4e-05 11.81152,0.416576 9.8768,1.217856 C7.94208,2.019456 6.16704,3.205376 4.68608,4.686336 C3.20544,6.166976 2.0192,7.942336 1.21792,9.877056 C0.41632,11.811776 0,13.905856 0,15.999936 C0,18.094016 0.41632,20.188096 1.21792,22.122816 C2.0192,24.057536 3.20544,25.832896 4.68608,27.313856 C6.16704,28.794496 7.94208,29.980736 9.8768,30.782016 C11.81152,31.583296 13.90592,31.999936 16,31.999936 C18.09408,31.999936 20.18816,31.583296 22.12288,30.782016 C24.0576,29.980736 25.83296,28.794496 27.3136,27.313856 C28.79424,25.832896 29.98048,24.057536 30.78208,22.122816 C31.58336,20.188096 32,18.094016 32,15.999936 Z"/>
    <path fill="#000" d="M11.85472,3.383616 C13.34528,2.893696 14.93824,2.669696 16.51616,2.730176 C18.0944,2.790656 19.65792,3.135936 21.11296,3.743936 C22.56832,4.351936 23.9152,5.222976 25.06752,6.297536 C26.59168,7.719296 27.77504,9.497536 28.4848,11.486656 C29.19488,13.476096 29.43136,15.676416 29.15744,17.771136 C28.88384,19.865856 28.09984,21.855296 26.91392,23.566016 C25.728,25.276736 24.13984,26.708416 22.27456,27.700416 C20.40928,28.692096 18.26624,29.243776 16.15392,29.275776 C14.0416,29.307776 11.95968,28.820416 10.09504,27.894976 C8.23072,26.969536 6.58336,25.606336 5.33248,23.903616 C4.0816,22.200896 3.2272,20.158656 2.888,18.074816 C2.5488,15.990656 2.7248,13.864576 3.37472,11.881216 C3.86592,10.381696 4.62816,8.964096 5.6048,7.735616 L4.12032,7.735616 L4.12032,5.281856 L9.93696,5.281856 L9.93696,10.713536 L7.4832,10.713536 L7.4832,9.229376 C6.6832,10.235456 6.05856,11.396736 5.65632,12.625536 C5.12416,14.251136 4.9808,15.995136 5.25632,17.696896 C5.59872,19.813696 6.5888,21.864896 8.06656,23.445696 C9.83424,25.336256 12.29952,26.554176 14.86592,26.820736 C17.432,27.087296 20.0992,26.402816 22.21728,24.928576 C24.33536,23.454336 25.90496,21.190336 26.54208,18.689856 C27.1792,16.189376 26.88384,13.452416 25.73504,11.142016 C24.58624,8.831616 22.58368,6.948416 20.18912,5.958976 C17.79456,4.969216 15.00768,4.873856 12.60384,5.663616 L11.85472,3.383616 Z"/>
    <g fill="#000" transform="translate(10.644 10.872)">
      <path d="M3.27206162,4.51454127 C3.81744875,4.50043643 4.36309709,4.50043643 4.90874542,4.51454127 C6.48639787,4.55502739 7.75609464,5.81793294 7.75609464,7.39610779 C7.75609464,8.97402143 6.48692027,10.2586067 4.90874542,10.2776743 C3.50191826,10.2943912 2.0945687,10.2943912 0.687219135,10.2776743 C0.344001369,10.2734951 0.0702629979,9.98800269 0.0702629979,9.64452372 C0.0702629979,9.30130595 0.344001369,9.02025396 0.687219135,9.01163434 C2.0940463,8.97558864 3.50113466,8.97558864 4.90874542,9.01163434 C5.80074594,9.0343588 6.52453317,8.2883695 6.52453317,7.39610779 C6.52453317,6.50384608 5.80100714,5.78058124 4.90874542,5.78058124 C4.7938171,5.78058124 4.67888878,5.78058124 4.56396045,5.78058124 C4.01857332,5.79442488 3.47292498,5.79442488 2.92727664,5.78058124 C1.3496242,5.74009513 0.0799274251,4.47692837 0.0799274251,2.89901472 C0.0799274251,1.32083988 1.3491018,0.0365158628 2.92727664,0.0174482091 C4.33410381,0.000470161324 5.74119217,0.000470161324 7.14828053,0.0174482091 C7.4917595,0.0216274209 7.76523667,0.307119825 7.76523667,0.650337592 C7.76523667,0.993816559 7.4914983,1.27460735 7.14828053,1.28348817 C5.74171457,1.31953388 4.33462621,1.31953388 2.92727664,1.28348817 C2.03527613,1.26050251 1.31148889,2.00675301 1.31148889,2.89901472 C1.31148889,3.79127644 2.03501493,4.51454127 2.92727664,4.51454127 C3.04220497,4.51454127 3.15713329,4.51454127 3.27206162,4.51454127 Z"/>
      <path d="M.928568615 8.60285519C1.01711566 8.60102678 1.10540151 8.59893718 1.19394856 8.59736997 1.44731328 8.59240716 1.70093919 8.58875035 1.9545651 8.58613834L3.67326594 6.1935396C3.52882194 6.1932784 3.38411673 6.1919724 3.23967272 6.18988279 3.16549171 6.18857679 3.09131071 6.18727079 3.0171297 6.18544238 2.98003919 6.18465878 2.94477709 6.18387518 2.90533578 6.18283037 2.86563327 6.18152437 2.82645316 6.17995716 2.78701185 6.17734516 2.75044375 6.17499435 2.71387564 6.17212114 2.67730754 6.16846433L.928568615 8.60285519zM4.16249492 4.10132171C4.30693893 4.10158291 4.45164414 4.10288891 4.59634934 4.10523972 4.67053035 4.10654573 4.74471136 4.10785173 4.81889237 4.10941893 4.85598288 4.11046374 4.89124498 4.11098614 4.93094749 4.11229214 4.9703888 4.11333694 5.00983011 4.11516535 5.04901022 4.11777736 5.08557832 4.12012816 5.12188522 4.12300137 5.15819213 4.12639698L6.90693105 1.69200613C6.8186452 1.69409573 6.73009815 1.69592414 6.64181231 1.69775254 6.38818639 1.70271536 6.13456048 1.70637217 5.88093456 1.70898417L4.16249492 4.10132171z"/>
    </g>
    <path fill="#000" d="M1.96757011.118907899C1.96757011.0750119921 2.00348696.0350055963 2.04782183.0350055963 2.22628369.0350055963 2.40474556.0350055963 2.58320742.0350055963 2.62754229.0350055963 2.66794875.0744563477 2.66794875.118907899 2.66794875.628433801 2.66794875 1.1379597 2.66794875 1.6474856 2.66794875 2.55346378 2.15052158 3.07882554 1.32948477 3.07882554.513218159 3.07882554 1.17547068e-14 2.55346378 1.17547068e-14 1.6474856 1.17547068e-14 1.1379597 1.17547068e-14.628433801 1.17547068e-14.118907899 1.17547068e-14.0750119921.0361974535.0350055963.0802517187.0350055963.258713583.0350055963.437175446.0350055963.61563731.0350055963.660252776.0350055963.700378636.0744563477.700378636.118907899.700378636.635657178.700378636 1.15240646.700378636 1.66915574.700378636 2.115616.932154578 2.43316677 1.33397437 2.43316677 1.73579417 2.43316677 1.96757011 2.115616 1.96757011 1.66915574 1.96757011 1.15240646 1.96757011.635657178 1.96757011.118907899zM5.12656958 1.01571794C5.05529708 1.01571794 5.03284904.989047007 5.0059114.93626079 4.91219086.719837302 4.70679136.582870961 4.3947637.582870961 4.11360208.582870961 3.87733653.680108728 3.87733653.865693953 3.87733653 1.0690598 4.09620486 1.1529621 4.57771517 1.21019347 5.30924045 1.29715182 5.72873807 1.51524224 5.72873807 2.08922289 5.72873807 2.7340482 5.15715503 3.07410257 4.42619095 3.07410257 3.79259521 3.07410257 3.248511 2.76933162 3.16348908 2.12922929 3.15535167 2.06727494 3.18593711 2.04532698 3.248511 2.04532698 3.41210105 2.04532698 3.57569109 2.04532698 3.73928113 2.04532698 3.80157442 2.04532698 3.83777188 2.07199792 3.8554497 2.12033898 3.93233421 2.32898344 4.15008014 2.49595458 4.48006622 2.49595458 4.77020705 2.49595458 5.02443103 2.3898265 5.02443103 2.16479053 5.02443103 1.895303 4.75701883 1.84696194 4.22135264 1.78028461 3.60543473 1.70360569 3.1775191 1.52413255 3.1775191.962653899 3.1775191.401730891 3.66408022-1.36107131e-14 4.42703275-1.36107131e-14 5.11366196-1.36107131e-14 5.59124387.366725295 5.68973461.914590659 5.70067803.976822831 5.68496441 1.01627358 5.61818151 1.01627358 5.45431087 1.01627358 5.29044022 1.01627358 5.12656958 1.01627358L5.12656958 1.01571794zM7.54871236.0350055963C8.4500009.0350055963 9.15037953.648992643 9.15037953 1.54580268 9.15037953 2.42927726 8.45898011 3.03909697 7.54871236 3.03909697L6.33539617 3.03909697 6.33539617 3.03909697C6.2910613 3.03909697 6.25514445 2.99881275 6.25514445 2.95491684L6.25514445.118907899 6.25514445.118907899C6.25514445.0750119921 6.2910613.0350055963 6.33539617.0350055963L7.54871236.0350055963 7.54871236.0350055963zM7.54422276.630656378L7.04026441.630656378 7.04026441.630656378C6.99592955.630656378 6.95973209.67010713 6.95973209.71455868L6.95973209 2.36204428 6.95973209 2.36204428C6.95973209 2.40594019 6.99592955 2.44150143 7.04026441 2.44150143L7.54871236 2.44150143 7.54871236 2.44150143 7.54871236 2.4423349C8.03527348 2.4423349 8.41408404 2.06199632 8.41408404 1.53635673 8.41408404 1.01099496 8.03471228.630656378 7.54422276.630656378z" transform="rotate(-90 20.067 .537)"/>
  </g>
</svg>
