<svg xmlns="http://www.w3.org/2000/svg" width="32" height="32" viewBox="0 0 32 32">
  <g fill="none" fill-rule="evenodd">
    <path fill="#FFF" d="M32,15.999936 C32,13.905856 31.58336,11.811776 30.78208,9.877056 C29.98048,7.942336 28.79424,6.166976 27.3136,4.686336 C25.83296,3.205376 24.0576,2.019456 22.12288,1.217856 C20.18816,0.416576 18.09408,-6.4e-05 16,-6.4e-05 C13.90592,-6.4e-05 11.81152,0.416576 9.8768,1.217856 C7.94208,2.019456 6.16704,3.205376 4.68608,4.686336 C3.20544,6.166976 2.0192,7.942336 1.21792,9.877056 C0.41632,11.811776 0,13.905856 0,15.999936 C0,18.094016 0.41632,20.188096 1.21792,22.122816 C2.0192,24.057536 3.20544,25.832896 4.68608,27.313856 C6.16704,28.794496 7.94208,29.980736 9.8768,30.782016 C11.81152,31.583296 13.90592,31.999936 16,31.999936 C18.09408,31.999936 20.18816,31.583296 22.12288,30.782016 C24.0576,29.980736 25.83296,28.794496 27.3136,27.313856 C28.79424,25.832896 29.98048,24.057536 30.78208,22.122816 C31.58336,20.188096 32,18.094016 32,15.999936 Z"/>
    <path fill="#000" d="M4.66625573,0.205853412 C5.28749191,0.232320279 5.99670593,0.36293917 6.83286288,0.610943518 C7.66901983,0.858702803 8.63236479,1.22384754 9.43911411,1.57183784 C10.2461085,1.91958306 10.8967523,2.25017384 11.4608887,2.59816413 C12.0252701,2.94590936 12.5031441,3.3110541 12.8727,3.65144742 C13.2422559,3.99184074 13.5037387,4.30723757 13.6997896,4.60327438 C13.8960855,4.8993112 14.0267044,5.17574292 14.14458,5.44996907 C14.2627007,5.72419522 14.3678329,5.9962158 14.4129246,6.36430131 C14.4580163,6.73263188 14.4428224,7.19678231 14.383517,7.62049725 C14.3242116,8.04421218 14.2205497,8.42749163 14.1012038,8.72279325 C13.9816127,9.01809487 13.8463376,9.22541866 13.6608245,9.39965887 C13.4753114,9.57389908 13.2393151,9.71530077 12.9432783,9.83611712 C12.6472415,9.95717853 12.2911641,10.0578997 11.8765165,10.1622968 C11.4616239,10.2666938 10.9884061,10.3747669 9.93095673,10.6092927 C9.27492151,10.7546154 8.39416298,10.9484607 7.23697273,11.4650548 C7.26540011,11.1106928 7.28868115,10.7560858 7.30363003,10.4009887 C7.32004929,10.0125629 7.32642094,9.62340193 7.31514802,9.23473108 C7.30975662,9.05509947 7.30068927,8.87571293 7.28819102,8.69657145 C7.27520265,8.51473427 7.25951858,8.33338721 7.24211907,8.15204016 C7.21638739,7.88148996 7.18599951,7.61167496 7.14997516,7.34235008 C7.13331084,7.21859297 7.1154212,7.09508092 7.09606117,6.97181394 C7.36587618,6.96470709 7.63569119,6.95539467 7.90501607,6.9424063 C8.17164525,6.92941793 8.43802937,6.91299867 8.70392336,6.89094295 C8.88183952,6.87599407 9.05975568,6.85859456 9.23718172,6.83751909 C9.41240218,6.81668869 9.58688745,6.79193726 9.76063753,6.76179444 C9.93095673,6.73189669 10.1005407,6.69636247 10.2679192,6.65298621 C10.3811385,6.62357858 10.4936227,6.59024993 10.6056168,6.55692129 C10.7176108,6.52334757 10.8293598,6.48928374 10.9406187,6.45399458 C11.0146279,6.43046848 11.0886371,6.40620718 11.1624012,6.38072057 C11.2342049,6.35572408 11.3055184,6.32950228 11.3756066,6.29984958 C11.4459398,6.26995183 11.5148027,6.23564293 11.58146,6.1981482 C11.6515482,6.15869296 11.720411,6.1153167 11.7816769,6.0628731 C11.8221124,6.02831913 11.8603423,5.98886389 11.8872993,5.943037 C11.8995525,5.92196154 11.909355,5.89941569 11.9159718,5.87588958 C11.9223434,5.85187335 11.9252842,5.8266318 11.924549,5.80188038 C11.9238138,5.77663883 11.9191576,5.75115222 11.9118057,5.72689092 C11.9044538,5.70238456 11.8941611,5.6786134 11.8823981,5.65582248 C11.870635,5.63327663 11.8571565,5.61146597 11.8426978,5.59039051 C11.8279939,5.5695601 11.8125549,5.54921982 11.7961357,5.52961474 C11.7378105,5.45977161 11.6709082,5.39703534 11.6013101,5.33822008 C11.4976482,5.25073238 11.3873696,5.17108671 11.2746404,5.09560713 C11.107507,4.98361307 10.934002,4.88117649 10.7575562,4.78437637 C10.4958283,4.64101418 10.2267485,4.51039529 9.95350258,4.39055919 C9.55453906,4.21533873 9.14405755,4.06462462 8.72744946,3.9369465 C8.46106534,3.85558539 8.19247565,3.78206631 7.92217052,3.71467382 C7.74498955,3.67056238 7.56682832,3.62890157 7.38817697,3.59116178 C7.21271144,3.55391211 7.03626566,3.51984827 6.85883962,3.49436166 C6.74194429,3.47745227 6.62406871,3.46397378 6.50594806,3.4598077 C6.3912583,3.45588668 6.27411791,3.46029782 6.16334917,3.48946039 C6.11188581,3.50318395 6.06164778,3.52254397 6.01582089,3.5492559 C5.98420769,3.56763567 5.95332967,3.58895621 5.92906838,3.6159132 C5.91779546,3.62841144 5.90799291,3.64238007 5.90015088,3.65708388 C5.89230884,3.67227782 5.88618225,3.68845202 5.88201617,3.70511634 C5.87760503,3.72178067 5.87490933,3.73893512 5.87368401,3.75608957 C5.87221363,3.77324402 5.87196856,3.79039847 5.87245869,3.80755292 C5.87466426,3.87126946 5.88716251,3.9342508 5.90235645,3.99600682 C5.91853065,4.06094867 5.93862586,4.12515533 5.96019146,4.1886268 C6.01974191,4.35306446 6.08027261,4.51725707 6.13933294,4.68169473 C6.18050362,4.79638449 6.22069405,4.91131931 6.25818877,5.02747945 C6.38905273,5.43379487 6.48830348,5.8508931 6.57064485,6.26995183 C6.61696186,6.505703 6.65788748,6.74267948 6.6934217,6.9801461 C6.73459238,7.25633276 6.76767597,7.53374474 6.79193726,7.81189191 C6.80860159,8.00181618 6.82158996,8.19223059 6.8313925,8.38264499 C6.85344822,8.80758525 6.86251558,9.23350576 6.85932975,9.65893615 C6.85810443,9.84077333 6.85418341,10.0223654 6.84634138,10.2039576 C6.83849934,10.3843244 6.82673629,10.5646912 6.80860159,10.7445678 C6.79022182,10.9268951 6.76522533,11.1087323 6.733122,11.2890991 C6.70518475,11.4444694 6.67234623,11.5991046 6.63387125,11.7522693 C6.58534866,11.9443991 6.52873897,12.132853 6.463307,12.3193464 C6.3407752,12.6678268 6.18761046,13.0089554 6.01484063,13.3079329 C5.84182574,13.6069105 5.64969589,13.8639822 5.42203182,14.0735116 C5.19436775,14.283286 4.93141452,14.4455181 4.64518026,14.5251638 C4.35894599,14.6048094 4.04943068,14.6016236 3.74016044,14.5322706 C3.43089019,14.4626725 3.12211008,14.3264172 2.73515467,14.0343014 C2.34795421,13.7421856 1.88257846,13.2942094 1.426025,12.4788828 C0.969226479,11.6638013 0.521495309,10.4816146 0.297017065,9.23350576 C0.0725388212,7.98539692 0.0715585669,6.67161104 0.118855839,5.73350764 C0.165908047,4.7956493 0.261237782,4.2337185 0.405580233,3.72766219 C0.549922685,3.22160589 0.74303279,2.77166915 0.984175358,2.35996233 C1.22531793,1.9482555 1.51449296,1.5747786 1.85488628,1.24394276 C2.19503453,0.912861855 2.58664614,0.624422015 3.04883606,0.441114453 C3.51127105,0.257806892 4.04477447,0.179631608 4.66625573,0.205853412 Z M3.3632343,7.51757649 C3.23935264,7.56015448 3.12763613,7.64024163 3.01348659,7.75195815 C2.8995398,7.86367466 2.78295723,8.00681778 2.68583888,8.2205187 C2.58872053,8.43421962 2.51086364,8.71827559 2.47213796,8.98915266 C2.43320952,9.25982697 2.43320952,9.51711963 2.44902419,9.79387652 C2.46483887,10.0708362 2.49646823,10.3670573 2.56925631,10.6584123 C2.64204438,10.9497674 2.75619392,11.2362563 2.88494163,11.4803701 C3.01348659,11.7242811 3.15683246,11.9258169 3.29957007,12.0750426 C3.44230769,12.2242683 3.58443705,12.3213866 3.756371,12.3872811 C3.92810219,12.4531756 4.12943522,12.488049 4.30542421,12.464327 C4.48141321,12.4408077 4.63165266,12.3586931 4.75675082,12.2485986 C4.88164624,12.1387068 4.98099486,12.0006325 5.06615083,11.8017325 C5.15130679,11.6028325 5.22227009,11.3429041 5.25572422,11.0148508 C5.2893811,10.6865949 5.28573156,10.2900114 5.24274808,9.92323248 C5.19996734,9.55645358 5.11785266,9.21968202 4.98910495,8.89325082 C4.86056,8.56702238 4.68517926,8.2511343 4.52703247,8.03804164 C4.36888568,7.82494897 4.22777008,7.71444897 4.10267192,7.63598383 C3.97757375,7.55772145 3.86829026,7.51149392 3.74562512,7.49101594 C3.62295999,7.47033521 3.48711595,7.47520126 3.3632343,7.51757649 Z" transform="translate(9.635 9.28)"/>
    <path fill="#0657F9" d="M11.85472,3.383616 C13.34528,2.893696 14.93824,2.669696 16.51616,2.730176 C18.0944,2.790656 19.65792,3.135936 21.11296,3.743936 C22.56832,4.351936 23.9152,5.222976 25.06752,6.297536 C26.59168,7.719296 27.77504,9.497536 28.4848,11.486656 C29.19488,13.476096 29.43136,15.676416 29.15744,17.771136 C28.88384,19.865856 28.09984,21.855296 26.91392,23.566016 C25.728,25.276736 24.13984,26.708416 22.27456,27.700416 C20.40928,28.692096 18.26624,29.243776 16.15392,29.275776 C14.0416,29.307776 11.95968,28.820416 10.09504,27.894976 C8.23072,26.969536 6.58336,25.606336 5.33248,23.903616 C4.0816,22.200896 3.2272,20.158656 2.888,18.074816 C2.5488,15.990656 2.7248,13.864576 3.37472,11.881216 C3.86592,10.381696 4.62816,8.964096 5.6048,7.735616 L4.12032,7.735616 L4.12032,5.281856 L9.93696,5.281856 L9.93696,10.713536 L7.4832,10.713536 L7.4832,9.229376 C6.6832,10.235456 6.05856,11.396736 5.65632,12.625536 C5.12416,14.251136 4.9808,15.995136 5.25632,17.696896 C5.59872,19.813696 6.5888,21.864896 8.06656,23.445696 C9.83424,25.336256 12.29952,26.554176 14.86592,26.820736 C17.432,27.087296 20.0992,26.402816 22.21728,24.928576 C24.33536,23.454336 25.90496,21.190336 26.54208,18.689856 C27.1792,16.189376 26.88384,13.452416 25.73504,11.142016 C24.58624,8.831616 22.58368,6.948416 20.18912,5.958976 C17.79456,4.969216 15.00768,4.873856 12.60384,5.663616 L11.85472,3.383616 Z"/>
  </g>
</svg>
