<svg xmlns="http://www.w3.org/2000/svg" width="32" height="32" viewBox="0 0 32 32">
  <defs>
    <linearGradient id="alink-a" x1="90.7%" x2="16.3%" y1="22.7%" y2="85.3%">
      <stop offset="0%" stop-color="#B6509E"/>
      <stop offset="100%" stop-color="#2EBAC6"/>
    </linearGradient>
  </defs>
  <g fill="none" fill-rule="evenodd">
    <path fill="#FFF" d="M31.3333333,16 C31.3333333,13.9931733 30.9340533,11.9863467 30.16616,10.13224 C29.3982667,8.27813333 28.2614533,6.57674667 26.8422,5.1578 C25.4232533,3.73854667 23.7218667,2.60173333 21.86776,1.83384 C20.0136533,1.06594667 18.0068267,0.666666667 16,0.666666667 C13.9931733,0.666666667 11.9863467,1.06594667 10.13224,1.83384 C8.27813333,2.60173333 6.57674667,3.73854667 5.1578,5.1578 C3.73854667,6.57674667 2.60173333,8.27813333 1.83384,10.13224 C1.06594667,11.9863467 0.666666667,13.9931733 0.666666667,16 C0.666666667,18.0068267 1.06594667,20.0136533 1.83384,21.86776 C2.60173333,23.7218667 3.73854667,25.4232533 5.1578,26.8422 C6.57674667,28.2614533 8.27813333,29.3982667 10.13224,30.16616 C11.9863467,30.9340533 13.9931733,31.3333333 16,31.3333333 C18.0068267,31.3333333 20.0136533,30.9340533 21.86776,30.16616 C23.7218667,29.3982667 25.4232533,28.2614533 26.8422,26.8422 C28.2614533,25.4232533 29.3982667,23.7218667 30.16616,21.86776 C30.9340533,20.0136533 31.3333333,18.0068267 31.3333333,16 Z"/>
    <path fill="url(#alink-a)" d="M16,0 C18.09408,0 20.18816,0.41664 22.12288,1.21792 C24.0576,2.0192 25.83296,3.20544 27.3136,4.6864 C28.79456,6.16704 29.9808,7.9424 30.78208,9.87712 C31.58336,11.81184 32,13.90592 32,16 C32,18.09408 31.58336,20.18816 30.78208,22.12288 C29.9808,24.0576 28.79456,25.83296 27.3136,27.3136 C25.83296,28.79456 24.0576,29.9808 22.12288,30.78208 C20.18816,31.58336 18.09408,32 16,32 C13.90592,32 11.81184,31.58336 9.87712,30.78208 C7.9424,29.9808 6.16704,28.79456 4.6864,27.3136 C3.20544,25.83296 2.0192,24.0576 1.21792,22.12288 C0.41664,20.18816 0,18.09408 0,16 C0,13.90592 0.41664,11.81184 1.21792,9.87712 C2.0192,7.9424 3.20544,6.16704 4.6864,4.6864 C6.16704,3.20544 7.9424,2.0192 9.87712,1.21792 C11.81184,0.41664 13.90592,0 16,0 Z M16,2 C14.1675556,2 12.3354222,2.36462222 10.6423556,3.06555556 C8.9496,3.7668 7.39622222,4.80497778 6.10044444,6.10044444 C4.80497778,7.39622222 3.7668,8.9496 3.06555556,10.6423556 C2.36462222,12.3354222 2,14.1675556 2,16 C2,17.8324444 2.36462222,19.6645778 3.06555556,21.3576444 C3.7668,23.0504 4.80497778,24.6037778 6.10044444,25.8995556 C7.39622222,27.1950222 8.9496,28.2332 10.6423556,28.9344444 C12.3354222,29.6353778 14.1675556,30 16,30 C17.8324444,30 19.6645778,29.6353778 21.3576444,28.9344444 C23.0504,28.2332 24.6037778,27.1950222 25.8995556,25.8995556 C27.1950222,24.6037778 28.2332,23.0504 28.9344444,21.3576444 C29.6353778,19.6645778 30,17.8324444 30,16 C30,14.1675556 29.6353778,12.3354222 28.9344444,10.6423556 C28.2332,8.9496 27.1950222,7.39622222 25.8995556,6.10044444 C24.6037778,4.80497778 23.0504,3.7668 21.3576444,3.06555556 C19.6645778,2.36462222 17.8324444,2 16,2 Z"/>
    <path fill="#2A5ADA" d="M15.9998592,5.34228572 L17.9752066,6.46796609 L23.3582676,9.54608987 L25.3333333,10.6720491 L25.3333333,21.3282297 L23.3582676,22.4539101 L18.0239284,25.53538 L16.048581,26.6577143 L14.0735153,25.53538 L8.64173242,22.4539101 L6.66666667,21.3282297 L6.66666667,10.6720491 L8.64173242,9.54608987 L14.0247934,6.46796609 L15.9998592,5.34228572 Z M15.9998592,9.83887273 L10.6170798,12.9203426 L10.6170798,19.0799362 L15.9998592,22.1611273 L21.3829202,19.0799362 L21.3829202,12.9203426 L15.9998592,9.83887273 Z"/>
  </g>
</svg>
